<mxfile host="app.diagrams.net" agent="Mozilla/5.0 (X11; Linux x86_64) AppleWebKit/537.36 (KHTML, like Gecko) Chrome/129.0.0.0 Safari/537.36" version="24.7.17">
  <diagram name="第 1 页" id="TA_flvRidIN1MDQiCpFb">
    <mxGraphModel dx="5551" dy="5773" grid="1" gridSize="10" guides="1" tooltips="1" connect="1" arrows="1" fold="1" page="1" pageScale="1" pageWidth="827" pageHeight="1169" math="0" shadow="0">
      <root>
        <mxCell id="0" />
        <mxCell id="1" parent="0" />
        <mxCell id="h3CtUdWNvLVvWNDMPcVa-4" style="edgeStyle=orthogonalEdgeStyle;rounded=0;orthogonalLoop=1;jettySize=auto;html=1;" parent="1" edge="1">
          <mxGeometry relative="1" as="geometry">
            <mxPoint x="1800" y="-2351.785" as="sourcePoint" />
            <mxPoint x="1800" y="-2331.785" as="targetPoint" />
          </mxGeometry>
        </mxCell>
        <mxCell id="h3CtUdWNvLVvWNDMPcVa-54" style="edgeStyle=orthogonalEdgeStyle;rounded=0;orthogonalLoop=1;jettySize=auto;html=1;exitX=0.5;exitY=0;exitDx=0;exitDy=0;entryX=0;entryY=0.5;entryDx=0;entryDy=0;" parent="1" source="h3CtUdWNvLVvWNDMPcVa-5" target="h3CtUdWNvLVvWNDMPcVa-28" edge="1">
          <mxGeometry relative="1" as="geometry">
            <mxPoint x="-1249" y="-430" as="targetPoint" />
          </mxGeometry>
        </mxCell>
        <mxCell id="h3CtUdWNvLVvWNDMPcVa-5" value="" style="shape=trapezoid;perimeter=trapezoidPerimeter;whiteSpace=wrap;html=1;fixedSize=1;rotation=-180;size=50;fillColor=#dae8fc;strokeColor=#6c8ebf;" parent="1" vertex="1">
          <mxGeometry x="-1330" y="-650" width="160" height="60" as="geometry" />
        </mxCell>
        <mxCell id="h3CtUdWNvLVvWNDMPcVa-19" style="edgeStyle=orthogonalEdgeStyle;rounded=0;orthogonalLoop=1;jettySize=auto;html=1;exitX=0.5;exitY=0;exitDx=0;exitDy=0;entryX=0;entryY=0.5;entryDx=0;entryDy=0;" parent="1" source="h3CtUdWNvLVvWNDMPcVa-6" target="h3CtUdWNvLVvWNDMPcVa-8" edge="1">
          <mxGeometry relative="1" as="geometry" />
        </mxCell>
        <mxCell id="h3CtUdWNvLVvWNDMPcVa-6" value="&lt;div style=&quot;font-size: 25px;&quot;&gt;&lt;hr&gt;&lt;/div&gt;" style="rounded=0;whiteSpace=wrap;html=1;rotation=90;fillColor=#dae8fc;strokeColor=#6c8ebf;" parent="1" vertex="1">
          <mxGeometry x="-1120" y="-1070" width="120" height="40" as="geometry" />
        </mxCell>
        <mxCell id="h3CtUdWNvLVvWNDMPcVa-61" style="edgeStyle=orthogonalEdgeStyle;rounded=0;orthogonalLoop=1;jettySize=auto;html=1;exitX=1;exitY=0.5;exitDx=0;exitDy=0;entryX=0.5;entryY=1;entryDx=0;entryDy=0;" parent="1" source="h3CtUdWNvLVvWNDMPcVa-8" target="h3CtUdWNvLVvWNDMPcVa-9" edge="1">
          <mxGeometry relative="1" as="geometry" />
        </mxCell>
        <mxCell id="h3CtUdWNvLVvWNDMPcVa-8" value="&lt;font style=&quot;font-size: 26px;&quot;&gt;+8&lt;/font&gt;" style="whiteSpace=wrap;html=1;aspect=fixed;fillColor=#dae8fc;strokeColor=#6c8ebf;" parent="1" vertex="1">
          <mxGeometry x="-630" y="-1090" width="80" height="80" as="geometry" />
        </mxCell>
        <mxCell id="MimmkQN_pH5iQWNIVET2-38" style="edgeStyle=orthogonalEdgeStyle;rounded=0;orthogonalLoop=1;jettySize=auto;html=1;exitX=1;exitY=0.5;exitDx=0;exitDy=0;entryX=0;entryY=0.25;entryDx=0;entryDy=0;" parent="1" source="MimmkQN_pH5iQWNIVET2-35" target="h3CtUdWNvLVvWNDMPcVa-77" edge="1">
          <mxGeometry relative="1" as="geometry" />
        </mxCell>
        <mxCell id="h3CtUdWNvLVvWNDMPcVa-9" value="" style="rounded=0;whiteSpace=wrap;html=1;rotation=90;fillColor=#dae8fc;strokeColor=#6c8ebf;" parent="1" vertex="1">
          <mxGeometry x="-340" y="-1070" width="120" height="40" as="geometry" />
        </mxCell>
        <mxCell id="h3CtUdWNvLVvWNDMPcVa-10" value="" style="rounded=0;whiteSpace=wrap;html=1;rotation=90;fillColor=#dae8fc;strokeColor=#6c8ebf;" parent="1" vertex="1">
          <mxGeometry x="-340" y="-800" width="120" height="40" as="geometry" />
        </mxCell>
        <mxCell id="h3CtUdWNvLVvWNDMPcVa-63" style="edgeStyle=orthogonalEdgeStyle;rounded=0;orthogonalLoop=1;jettySize=auto;html=1;entryX=0.5;entryY=1;entryDx=0;entryDy=0;" parent="1" source="h3CtUdWNvLVvWNDMPcVa-28" target="h3CtUdWNvLVvWNDMPcVa-58" edge="1">
          <mxGeometry relative="1" as="geometry" />
        </mxCell>
        <mxCell id="h3CtUdWNvLVvWNDMPcVa-28" value="" style="rounded=0;whiteSpace=wrap;html=1;fillColor=#dae8fc;strokeColor=#6c8ebf;" parent="1" vertex="1">
          <mxGeometry x="-1155" y="-490" width="225" height="170" as="geometry" />
        </mxCell>
        <mxCell id="h3CtUdWNvLVvWNDMPcVa-41" style="edgeStyle=orthogonalEdgeStyle;rounded=0;orthogonalLoop=1;jettySize=auto;html=1;entryX=0.5;entryY=1;entryDx=0;entryDy=0;" parent="1" target="h3CtUdWNvLVvWNDMPcVa-6" edge="1">
          <mxGeometry relative="1" as="geometry">
            <mxPoint x="-1360" y="-1051.11" as="sourcePoint" />
            <mxPoint x="-1090" y="-1051" as="targetPoint" />
          </mxGeometry>
        </mxCell>
        <mxCell id="h3CtUdWNvLVvWNDMPcVa-47" style="edgeStyle=orthogonalEdgeStyle;rounded=0;orthogonalLoop=1;jettySize=auto;html=1;exitX=0.25;exitY=1;exitDx=0;exitDy=0;" parent="1" source="h3CtUdWNvLVvWNDMPcVa-40" edge="1">
          <mxGeometry relative="1" as="geometry">
            <mxPoint x="-440" y="-1050" as="targetPoint" />
            <Array as="points">
              <mxPoint x="-1417" y="-1084" />
              <mxPoint x="-1417" y="-1138" />
              <mxPoint x="-440" y="-1138" />
            </Array>
          </mxGeometry>
        </mxCell>
        <mxCell id="h3CtUdWNvLVvWNDMPcVa-40" value="" style="shape=trapezoid;perimeter=trapezoidPerimeter;whiteSpace=wrap;html=1;fixedSize=1;rotation=90;fillColor=#dae8fc;strokeColor=#6c8ebf;" parent="1" vertex="1">
          <mxGeometry x="-1485" y="-1030" width="215" height="40" as="geometry" />
        </mxCell>
        <mxCell id="h3CtUdWNvLVvWNDMPcVa-52" value="" style="endArrow=classic;html=1;rounded=0;entryX=0.25;entryY=1;entryDx=0;entryDy=0;" parent="1" target="h3CtUdWNvLVvWNDMPcVa-5" edge="1">
          <mxGeometry width="50" height="50" relative="1" as="geometry">
            <mxPoint x="-1210" y="-1050" as="sourcePoint" />
            <mxPoint x="-1210" y="-770" as="targetPoint" />
          </mxGeometry>
        </mxCell>
        <mxCell id="h3CtUdWNvLVvWNDMPcVa-53" value="" style="endArrow=classic;html=1;rounded=0;entryX=0.75;entryY=1;entryDx=0;entryDy=0;" parent="1" target="h3CtUdWNvLVvWNDMPcVa-5" edge="1">
          <mxGeometry width="50" height="50" relative="1" as="geometry">
            <mxPoint x="-1290" y="-790" as="sourcePoint" />
            <mxPoint x="-1279.9951851851852" y="-762.2222222222217" as="targetPoint" />
          </mxGeometry>
        </mxCell>
        <mxCell id="idpTYqr38m1hENi_6hJd-5" value="rst_vect&lt;div style=&quot;font-size: 23px;&quot;&gt;&lt;br style=&quot;font-size: 23px;&quot;&gt;&lt;/div&gt;" style="edgeLabel;html=1;align=center;verticalAlign=middle;resizable=0;points=[];fontSize=23;" parent="h3CtUdWNvLVvWNDMPcVa-53" connectable="0" vertex="1">
          <mxGeometry x="-0.0429" relative="1" as="geometry">
            <mxPoint y="3" as="offset" />
          </mxGeometry>
        </mxCell>
        <mxCell id="h3CtUdWNvLVvWNDMPcVa-72" style="edgeStyle=orthogonalEdgeStyle;rounded=0;orthogonalLoop=1;jettySize=auto;html=1;exitX=0.5;exitY=0;exitDx=0;exitDy=0;entryX=0.75;entryY=1;entryDx=0;entryDy=0;" parent="1" source="h3CtUdWNvLVvWNDMPcVa-56" target="h3CtUdWNvLVvWNDMPcVa-58" edge="1">
          <mxGeometry relative="1" as="geometry" />
        </mxCell>
        <mxCell id="h3CtUdWNvLVvWNDMPcVa-56" value="" style="rounded=0;whiteSpace=wrap;html=1;rotation=90;fillColor=#dae8fc;strokeColor=#6c8ebf;" parent="1" vertex="1">
          <mxGeometry x="-850" y="-300" width="120" height="60" as="geometry" />
        </mxCell>
        <mxCell id="h3CtUdWNvLVvWNDMPcVa-74" style="edgeStyle=orthogonalEdgeStyle;rounded=0;orthogonalLoop=1;jettySize=auto;html=1;exitX=0.5;exitY=0;exitDx=0;exitDy=0;" parent="1" source="h3CtUdWNvLVvWNDMPcVa-58" edge="1">
          <mxGeometry relative="1" as="geometry">
            <mxPoint x="-520" y="-580" as="targetPoint" />
            <Array as="points">
              <mxPoint x="-630" y="-405" />
              <mxPoint x="-630" y="-600" />
            </Array>
          </mxGeometry>
        </mxCell>
        <mxCell id="h3CtUdWNvLVvWNDMPcVa-58" value="" style="shape=trapezoid;perimeter=trapezoidPerimeter;whiteSpace=wrap;html=1;fixedSize=1;rotation=90;size=50;fillColor=#dae8fc;strokeColor=#6c8ebf;" parent="1" vertex="1">
          <mxGeometry x="-750" y="-435" width="160" height="60" as="geometry" />
        </mxCell>
        <mxCell id="h3CtUdWNvLVvWNDMPcVa-77" value="&lt;font style=&quot;font-size: 30px;&quot;&gt;j_targ&lt;/font&gt;" style="rounded=0;whiteSpace=wrap;html=1;fillColor=#dae8fc;strokeColor=#6c8ebf;" parent="1" vertex="1">
          <mxGeometry x="-10" y="-1080" width="280" height="120" as="geometry" />
        </mxCell>
        <mxCell id="h3CtUdWNvLVvWNDMPcVa-81" value="" style="endArrow=none;html=1;rounded=0;" parent="1" target="zn3MZnFg3po8sbIGN5-C-2" edge="1">
          <mxGeometry width="50" height="50" relative="1" as="geometry">
            <mxPoint x="-760" y="-770" as="sourcePoint" />
            <mxPoint x="-760" y="-1050" as="targetPoint" />
          </mxGeometry>
        </mxCell>
        <mxCell id="h3CtUdWNvLVvWNDMPcVa-82" value="" style="endArrow=classic;html=1;rounded=0;entryX=0.594;entryY=1.111;entryDx=0;entryDy=0;entryPerimeter=0;" parent="1" target="h3CtUdWNvLVvWNDMPcVa-10" edge="1">
          <mxGeometry width="50" height="50" relative="1" as="geometry">
            <mxPoint x="-760" y="-770" as="sourcePoint" />
            <mxPoint x="-300" y="-770" as="targetPoint" />
          </mxGeometry>
        </mxCell>
        <mxCell id="h3CtUdWNvLVvWNDMPcVa-84" value="&lt;font style=&quot;font-size: 30px;&quot;&gt;br_targ&lt;/font&gt;" style="rounded=0;whiteSpace=wrap;html=1;fillColor=#dae8fc;strokeColor=#6c8ebf;" parent="1" vertex="1">
          <mxGeometry y="-861" width="280" height="140" as="geometry" />
        </mxCell>
        <mxCell id="MimmkQN_pH5iQWNIVET2-62" style="edgeStyle=orthogonalEdgeStyle;rounded=0;orthogonalLoop=1;jettySize=auto;html=1;exitX=1;exitY=0.25;exitDx=0;exitDy=0;entryX=0;entryY=0.25;entryDx=0;entryDy=0;" parent="1" source="h3CtUdWNvLVvWNDMPcVa-85" target="idpTYqr38m1hENi_6hJd-6" edge="1">
          <mxGeometry relative="1" as="geometry" />
        </mxCell>
        <mxCell id="h3CtUdWNvLVvWNDMPcVa-85" value="&lt;font style=&quot;font-size: 30px;&quot;&gt;regfile(read)&lt;/font&gt;" style="rounded=0;whiteSpace=wrap;html=1;fillColor=#dae8fc;strokeColor=#6c8ebf;" parent="1" vertex="1">
          <mxGeometry x="-5" y="-515" width="290" height="130" as="geometry" />
        </mxCell>
        <mxCell id="idpTYqr38m1hENi_6hJd-1" value="" style="endArrow=classic;html=1;rounded=0;fillColor=#dae8fc;strokeColor=#6c8ebf;" parent="1" edge="1">
          <mxGeometry width="50" height="50" relative="1" as="geometry">
            <mxPoint x="-1378.21" y="-820" as="sourcePoint" />
            <mxPoint x="-1378.21" y="-900" as="targetPoint" />
          </mxGeometry>
        </mxCell>
        <mxCell id="idpTYqr38m1hENi_6hJd-4" value="&lt;font color=&quot;#3333ff&quot;&gt;pc_mux_sel_P&lt;/font&gt;" style="edgeLabel;html=1;align=center;verticalAlign=middle;resizable=0;points=[];fontSize=23;" parent="idpTYqr38m1hENi_6hJd-1" connectable="0" vertex="1">
          <mxGeometry x="0.1464" y="-1" relative="1" as="geometry">
            <mxPoint y="56" as="offset" />
          </mxGeometry>
        </mxCell>
        <mxCell id="idpTYqr38m1hENi_6hJd-6" value="&lt;font style=&quot;font-size: 30px;&quot;&gt;jr_targ&lt;/font&gt;" style="rounded=0;whiteSpace=wrap;html=1;fillColor=#dae8fc;strokeColor=#6c8ebf;" parent="1" vertex="1">
          <mxGeometry x="440" y="-1000" width="280" height="90" as="geometry" />
        </mxCell>
        <mxCell id="MimmkQN_pH5iQWNIVET2-110" style="edgeStyle=orthogonalEdgeStyle;rounded=0;orthogonalLoop=1;jettySize=auto;html=1;exitX=0.5;exitY=0;exitDx=0;exitDy=0;entryX=0.5;entryY=1;entryDx=0;entryDy=0;" parent="1" source="idpTYqr38m1hENi_6hJd-7" target="idpTYqr38m1hENi_6hJd-11" edge="1">
          <mxGeometry relative="1" as="geometry" />
        </mxCell>
        <mxCell id="idpTYqr38m1hENi_6hJd-7" value="" style="shape=trapezoid;perimeter=trapezoidPerimeter;whiteSpace=wrap;html=1;fixedSize=1;rotation=90;fillColor=#dae8fc;strokeColor=#6c8ebf;" parent="1" vertex="1">
          <mxGeometry x="662" y="-660" width="165" height="40" as="geometry" />
        </mxCell>
        <mxCell id="idpTYqr38m1hENi_6hJd-14" style="edgeStyle=orthogonalEdgeStyle;rounded=0;orthogonalLoop=1;jettySize=auto;html=1;exitX=0.5;exitY=0;exitDx=0;exitDy=0;" parent="1" target="idpTYqr38m1hENi_6hJd-12" edge="1">
          <mxGeometry relative="1" as="geometry">
            <mxPoint x="929.375" y="-122.86999999999989" as="sourcePoint" />
          </mxGeometry>
        </mxCell>
        <mxCell id="idpTYqr38m1hENi_6hJd-10" value="" style="rounded=0;whiteSpace=wrap;html=1;rotation=90;fillColor=#dae8fc;strokeColor=#6c8ebf;" parent="1" vertex="1">
          <mxGeometry x="1110" y="-1040" width="140" height="40" as="geometry" />
        </mxCell>
        <mxCell id="idpTYqr38m1hENi_6hJd-11" value="" style="rounded=0;whiteSpace=wrap;html=1;rotation=90;fillColor=#dae8fc;strokeColor=#6c8ebf;" parent="1" vertex="1">
          <mxGeometry x="1110" y="-660" width="140" height="40" as="geometry" />
        </mxCell>
        <mxCell id="idpTYqr38m1hENi_6hJd-12" value="" style="rounded=0;whiteSpace=wrap;html=1;rotation=90;fillColor=#dae8fc;strokeColor=#6c8ebf;" parent="1" vertex="1">
          <mxGeometry x="1110" y="-142.87" width="140" height="40" as="geometry" />
        </mxCell>
        <mxCell id="idpTYqr38m1hENi_6hJd-13" value="" style="rounded=0;whiteSpace=wrap;html=1;rotation=90;direction=west;fillColor=#dae8fc;strokeColor=#6c8ebf;" parent="1" vertex="1">
          <mxGeometry x="1111" y="260" width="140" height="40" as="geometry" />
        </mxCell>
        <mxCell id="idpTYqr38m1hENi_6hJd-23" value="" style="shape=trapezoid;perimeter=trapezoidPerimeter;whiteSpace=wrap;html=1;fixedSize=1;rotation=90;size=50;fillColor=#dae8fc;strokeColor=#6c8ebf;" parent="1" vertex="1">
          <mxGeometry x="2242.5" y="99.5" width="115" height="60" as="geometry" />
        </mxCell>
        <mxCell id="idpTYqr38m1hENi_6hJd-26" value="" style="rounded=0;whiteSpace=wrap;html=1;fillColor=#dae8fc;strokeColor=#6c8ebf;" parent="1" vertex="1">
          <mxGeometry x="4350" y="-740" width="380" height="140" as="geometry" />
        </mxCell>
        <mxCell id="MimmkQN_pH5iQWNIVET2-2" value="&lt;div style=&quot;font-size: 23px;&quot;&gt;pc_F&lt;/div&gt;&lt;div style=&quot;font-size: 23px;&quot;&gt;&lt;br&gt;&lt;/div&gt;" style="edgeLabel;html=1;align=center;verticalAlign=middle;resizable=0;points=[];fontSize=23;" parent="1" connectable="0" vertex="1">
          <mxGeometry x="-1060" y="-955" as="geometry" />
        </mxCell>
        <mxCell id="MimmkQN_pH5iQWNIVET2-4" value="" style="endArrow=none;html=1;rounded=0;" parent="1" edge="1">
          <mxGeometry width="50" height="50" relative="1" as="geometry">
            <mxPoint x="-1480" y="-1250" as="sourcePoint" />
            <mxPoint x="361.25" y="-1240" as="targetPoint" />
          </mxGeometry>
        </mxCell>
        <mxCell id="MimmkQN_pH5iQWNIVET2-5" value="" style="endArrow=none;html=1;rounded=0;" parent="1" edge="1">
          <mxGeometry width="50" height="50" relative="1" as="geometry">
            <mxPoint x="360" y="-1000" as="sourcePoint" />
            <mxPoint x="360" y="-1240" as="targetPoint" />
          </mxGeometry>
        </mxCell>
        <mxCell id="MimmkQN_pH5iQWNIVET2-7" value="&lt;div style=&quot;font-size: 23px;&quot;&gt;&lt;br&gt;&lt;/div&gt;" style="edgeLabel;html=1;align=center;verticalAlign=middle;resizable=0;points=[];fontSize=23;rotation=0;" parent="1" connectable="0" vertex="1">
          <mxGeometry x="-1090" y="-390" as="geometry">
            <mxPoint x="-7" y="-56" as="offset" />
          </mxGeometry>
        </mxCell>
        <mxCell id="MimmkQN_pH5iQWNIVET2-8" value="&lt;div style=&quot;forced-color-adjust: none; font-size: 23px;&quot;&gt;rdata&lt;/div&gt;" style="text;whiteSpace=wrap;html=1;" parent="1" vertex="1">
          <mxGeometry x="-1020" y="-475" width="80" height="130" as="geometry" />
        </mxCell>
        <mxCell id="MimmkQN_pH5iQWNIVET2-10" value="" style="endArrow=none;html=1;rounded=0;" parent="1" edge="1">
          <mxGeometry width="50" height="50" relative="1" as="geometry">
            <mxPoint x="910" y="-950" as="sourcePoint" />
            <mxPoint x="910" y="-1360" as="targetPoint" />
          </mxGeometry>
        </mxCell>
        <mxCell id="MimmkQN_pH5iQWNIVET2-11" value="" style="endArrow=classic;html=1;rounded=0;entryX=1;entryY=0.5;entryDx=0;entryDy=0;" parent="1" target="idpTYqr38m1hENi_6hJd-6" edge="1">
          <mxGeometry width="50" height="50" relative="1" as="geometry">
            <mxPoint x="910" y="-955" as="sourcePoint" />
            <mxPoint x="880" y="-1020" as="targetPoint" />
          </mxGeometry>
        </mxCell>
        <mxCell id="MimmkQN_pH5iQWNIVET2-15" value="&lt;font style=&quot;font-size: 30px;&quot;&gt;br_targ_X&lt;/font&gt;" style="text;whiteSpace=wrap;html=1;" parent="1" vertex="1">
          <mxGeometry x="1121" y="-950" width="120" height="60" as="geometry" />
        </mxCell>
        <mxCell id="MimmkQN_pH5iQWNIVET2-16" value="&lt;font style=&quot;font-size: 30px;&quot;&gt;op0_mux_out_X&lt;/font&gt;&lt;div&gt;&lt;font style=&quot;font-size: 30px;&quot;&gt;&lt;br&gt;&lt;/font&gt;&lt;/div&gt;" style="text;whiteSpace=wrap;html=1;" parent="1" vertex="1">
          <mxGeometry x="1100" y="-561.41" width="120" height="60" as="geometry" />
        </mxCell>
        <mxCell id="MimmkQN_pH5iQWNIVET2-17" value="&lt;font style=&quot;forced-color-adjust: none; color: rgb(0, 0, 0); font-family: Helvetica; font-style: normal; font-variant-ligatures: normal; font-variant-caps: normal; font-weight: 400; letter-spacing: normal; orphans: 2; text-align: left; text-indent: 0px; text-transform: none; widows: 2; word-spacing: 0px; -webkit-text-stroke-width: 0px; white-space: normal; background-color: rgb(251, 251, 251); text-decoration-thickness: initial; text-decoration-style: initial; text-decoration-color: initial; font-size: 30px;&quot;&gt;op1&lt;/font&gt;&lt;span style=&quot;font-size: 30px;&quot;&gt;_mux_out_X&lt;/span&gt;" style="text;whiteSpace=wrap;html=1;" parent="1" vertex="1">
          <mxGeometry x="1050" y="-30" width="250" height="60" as="geometry" />
        </mxCell>
        <mxCell id="MimmkQN_pH5iQWNIVET2-18" value="&lt;span style=&quot;font-size: 30px;&quot;&gt;wdata_X&lt;/span&gt;&lt;div&gt;&lt;span style=&quot;font-size: 30px;&quot;&gt;&lt;br&gt;&lt;/span&gt;&lt;/div&gt;" style="text;whiteSpace=wrap;html=1;" parent="1" vertex="1">
          <mxGeometry x="1130" y="360" width="250" height="60" as="geometry" />
        </mxCell>
        <mxCell id="MimmkQN_pH5iQWNIVET2-22" value="" style="endArrow=none;html=1;rounded=0;" parent="1" edge="1">
          <mxGeometry width="50" height="50" relative="1" as="geometry">
            <mxPoint x="-1640" y="-1420" as="sourcePoint" />
            <mxPoint x="1380" y="-1420" as="targetPoint" />
          </mxGeometry>
        </mxCell>
        <mxCell id="MimmkQN_pH5iQWNIVET2-23" value="" style="endArrow=none;html=1;rounded=0;" parent="1" edge="1">
          <mxGeometry width="50" height="50" relative="1" as="geometry">
            <mxPoint x="1380" y="-1000" as="sourcePoint" />
            <mxPoint x="1380" y="-1420" as="targetPoint" />
          </mxGeometry>
        </mxCell>
        <mxCell id="MimmkQN_pH5iQWNIVET2-24" value="" style="endArrow=classic;html=1;rounded=0;entryX=0.623;entryY=-0.086;entryDx=0;entryDy=0;entryPerimeter=0;" parent="1" target="idpTYqr38m1hENi_6hJd-10" edge="1">
          <mxGeometry width="50" height="50" relative="1" as="geometry">
            <mxPoint x="1380" y="-1003" as="sourcePoint" />
            <mxPoint x="1360" y="-1070" as="targetPoint" />
          </mxGeometry>
        </mxCell>
        <mxCell id="MimmkQN_pH5iQWNIVET2-25" value="" style="endArrow=none;html=1;rounded=0;entryX=0.5;entryY=1;entryDx=0;entryDy=0;" parent="1" edge="1">
          <mxGeometry width="50" height="50" relative="1" as="geometry">
            <mxPoint x="-1580" y="-1001" as="sourcePoint" />
            <mxPoint x="-1397.5" y="-1001" as="targetPoint" />
            <Array as="points">
              <mxPoint x="-1520" y="-1001" />
            </Array>
          </mxGeometry>
        </mxCell>
        <mxCell id="MimmkQN_pH5iQWNIVET2-26" value="&lt;span style=&quot;color: rgb(0, 0, 0); font-family: Helvetica; font-size: 30px; font-style: normal; font-variant-ligatures: normal; font-variant-caps: normal; font-weight: 400; letter-spacing: normal; orphans: 2; text-align: center; text-indent: 0px; text-transform: none; widows: 2; word-spacing: 0px; -webkit-text-stroke-width: 0px; white-space: normal; background-color: rgb(251, 251, 251); text-decoration-thickness: initial; text-decoration-style: initial; text-decoration-color: initial; display: inline !important; float: none;&quot;&gt;pc_plus8_D&lt;/span&gt;" style="text;whiteSpace=wrap;html=1;" parent="1" vertex="1">
          <mxGeometry x="-340" y="-985" width="110" height="60" as="geometry" />
        </mxCell>
        <mxCell id="MimmkQN_pH5iQWNIVET2-27" value="&lt;span style=&quot;color: rgb(0, 0, 0); font-family: Helvetica; font-size: 30px; font-style: normal; font-variant-ligatures: normal; font-variant-caps: normal; font-weight: 400; letter-spacing: normal; orphans: 2; text-align: center; text-indent: 0px; text-transform: none; widows: 2; word-spacing: 0px; -webkit-text-stroke-width: 0px; white-space: normal; background-color: rgb(251, 251, 251); text-decoration-thickness: initial; text-decoration-style: initial; text-decoration-color: initial; display: inline !important; float: none;&quot;&gt;pc_D&lt;/span&gt;" style="text;whiteSpace=wrap;html=1;rotation=0;" parent="1" vertex="1">
          <mxGeometry x="-310" y="-720" width="110" height="60" as="geometry" />
        </mxCell>
        <mxCell id="MimmkQN_pH5iQWNIVET2-28" value="&lt;span style=&quot;color: rgb(0, 0, 0); font-family: Helvetica; font-size: 30px; font-style: normal; font-variant-ligatures: normal; font-variant-caps: normal; font-weight: 400; letter-spacing: normal; orphans: 2; text-align: center; text-indent: 0px; text-transform: none; widows: 2; word-spacing: 0px; -webkit-text-stroke-width: 0px; white-space: normal; background-color: rgb(251, 251, 251); text-decoration-thickness: initial; text-decoration-style: initial; text-decoration-color: initial; display: inline !important; float: none;&quot;&gt;ir_B&lt;/span&gt;" style="text;whiteSpace=wrap;html=1;rotation=0;" parent="1" vertex="1">
          <mxGeometry x="-310" y="-340" width="110" height="60" as="geometry" />
        </mxCell>
        <mxCell id="MimmkQN_pH5iQWNIVET2-29" value="" style="triangle;whiteSpace=wrap;html=1;rotation=-90;" parent="1" vertex="1">
          <mxGeometry x="-1080" y="-1030" width="40" height="40" as="geometry" />
        </mxCell>
        <mxCell id="MimmkQN_pH5iQWNIVET2-30" value="" style="triangle;whiteSpace=wrap;html=1;rotation=-90;" parent="1" vertex="1">
          <mxGeometry x="-1080" y="-360" width="40" height="40" as="geometry" />
        </mxCell>
        <mxCell id="MimmkQN_pH5iQWNIVET2-31" value="" style="triangle;whiteSpace=wrap;html=1;rotation=-90;" parent="1" vertex="1">
          <mxGeometry x="-810" y="-260" width="40" height="60" as="geometry" />
        </mxCell>
        <mxCell id="MimmkQN_pH5iQWNIVET2-35" value="" style="triangle;whiteSpace=wrap;html=1;rotation=-90;" parent="1" vertex="1">
          <mxGeometry x="-300" y="-1030" width="40" height="40" as="geometry" />
        </mxCell>
        <mxCell id="MimmkQN_pH5iQWNIVET2-36" value="" style="triangle;whiteSpace=wrap;html=1;rotation=-90;" parent="1" vertex="1">
          <mxGeometry x="-300" y="-760" width="40" height="40" as="geometry" />
        </mxCell>
        <mxCell id="MimmkQN_pH5iQWNIVET2-41" value="" style="endArrow=none;html=1;rounded=0;" parent="1" source="zn3MZnFg3po8sbIGN5-C-4" edge="1">
          <mxGeometry width="50" height="50" relative="1" as="geometry">
            <mxPoint x="-180" y="-680" as="sourcePoint" />
            <mxPoint x="-180" y="-1050" as="targetPoint" />
          </mxGeometry>
        </mxCell>
        <mxCell id="MimmkQN_pH5iQWNIVET2-42" value="&lt;font color=&quot;#3333ff&quot;&gt;&lt;font style=&quot;forced-color-adjust: none; font-family: Helvetica; font-style: normal; font-variant-ligatures: normal; font-variant-caps: normal; font-weight: 400; letter-spacing: normal; orphans: 2; text-align: left; text-indent: 0px; text-transform: none; widows: 2; word-spacing: 0px; -webkit-text-stroke-width: 0px; white-space: normal; background-color: rgb(251, 251, 251); text-decoration-thickness: initial; text-decoration-style: initial; text-decoration-color: initial; font-size: 30px;&quot;&gt;op0_mux_sel_D&lt;/font&gt;&lt;br class=&quot;Apple-interchange-newline&quot;&gt;&lt;/font&gt;&lt;div&gt;&lt;font style=&quot;forced-color-adjust: none; color: rgb(0, 0, 0); font-family: Helvetica; font-style: normal; font-variant-ligatures: normal; font-variant-caps: normal; font-weight: 400; letter-spacing: normal; orphans: 2; text-align: left; text-indent: 0px; text-transform: none; widows: 2; word-spacing: 0px; -webkit-text-stroke-width: 0px; white-space: normal; background-color: rgb(251, 251, 251); text-decoration-thickness: initial; text-decoration-style: initial; text-decoration-color: initial; font-size: 30px;&quot;&gt;&lt;br&gt;&lt;/font&gt;&lt;/div&gt;" style="text;whiteSpace=wrap;html=1;" parent="1" vertex="1">
          <mxGeometry x="640" y="-470" width="250" height="60" as="geometry" />
        </mxCell>
        <mxCell id="MimmkQN_pH5iQWNIVET2-44" value="" style="endArrow=classic;html=1;rounded=0;" parent="1" edge="1">
          <mxGeometry width="50" height="50" relative="1" as="geometry">
            <mxPoint x="-170" y="-771" as="sourcePoint" />
            <mxPoint y="-771" as="targetPoint" />
          </mxGeometry>
        </mxCell>
        <mxCell id="MimmkQN_pH5iQWNIVET2-48" value="" style="endArrow=none;html=1;rounded=0;" parent="1" edge="1">
          <mxGeometry width="50" height="50" relative="1" as="geometry">
            <mxPoint x="-250" y="-400" as="sourcePoint" />
            <mxPoint x="-110" y="-400" as="targetPoint" />
          </mxGeometry>
        </mxCell>
        <mxCell id="MimmkQN_pH5iQWNIVET2-49" value="" style="endArrow=none;html=1;rounded=0;" parent="1" edge="1">
          <mxGeometry width="50" height="50" relative="1" as="geometry">
            <mxPoint x="-110" y="-400" as="sourcePoint" />
            <mxPoint x="-110" y="-990" as="targetPoint" />
          </mxGeometry>
        </mxCell>
        <mxCell id="MimmkQN_pH5iQWNIVET2-50" value="" style="endArrow=classic;html=1;rounded=0;" parent="1" edge="1">
          <mxGeometry width="50" height="50" relative="1" as="geometry">
            <mxPoint x="-110" y="-990" as="sourcePoint" />
            <mxPoint y="-990" as="targetPoint" />
          </mxGeometry>
        </mxCell>
        <mxCell id="MimmkQN_pH5iQWNIVET2-56" value="&lt;font style=&quot;font-size: 20px;&quot;&gt;imm_uj&lt;/font&gt;" style="edgeLabel;html=1;align=center;verticalAlign=middle;resizable=0;points=[];" parent="MimmkQN_pH5iQWNIVET2-50" connectable="0" vertex="1">
          <mxGeometry x="0.1888" y="-4" relative="1" as="geometry">
            <mxPoint x="-15" y="16" as="offset" />
          </mxGeometry>
        </mxCell>
        <mxCell id="MimmkQN_pH5iQWNIVET2-52" value="" style="endArrow=classic;html=1;rounded=0;entryX=0;entryY=0.25;entryDx=0;entryDy=0;" parent="1" target="h3CtUdWNvLVvWNDMPcVa-84" edge="1">
          <mxGeometry width="50" height="50" relative="1" as="geometry">
            <mxPoint x="-110" y="-826" as="sourcePoint" />
            <mxPoint x="-60" y="-861" as="targetPoint" />
          </mxGeometry>
        </mxCell>
        <mxCell id="MimmkQN_pH5iQWNIVET2-53" value="" style="endArrow=classic;html=1;rounded=0;entryX=1;entryY=0;entryDx=0;entryDy=0;" parent="1" target="MimmkQN_pH5iQWNIVET2-58" edge="1">
          <mxGeometry width="50" height="50" relative="1" as="geometry">
            <mxPoint x="-110" y="-478" as="sourcePoint" />
            <mxPoint x="-60" y="-500" as="targetPoint" />
          </mxGeometry>
        </mxCell>
        <mxCell id="MimmkQN_pH5iQWNIVET2-55" value="" style="endArrow=classic;html=1;rounded=0;" parent="1" edge="1">
          <mxGeometry width="50" height="50" relative="1" as="geometry">
            <mxPoint x="-110" y="-440" as="sourcePoint" />
            <mxPoint x="-3" y="-439" as="targetPoint" />
          </mxGeometry>
        </mxCell>
        <mxCell id="MimmkQN_pH5iQWNIVET2-57" value="&lt;font style=&quot;font-size: 20px;&quot;&gt;imm_sb&lt;/font&gt;&lt;div&gt;&lt;font style=&quot;font-size: 20px;&quot;&gt;&lt;br&gt;&lt;/font&gt;&lt;/div&gt;" style="edgeLabel;html=1;align=center;verticalAlign=middle;resizable=0;points=[];" parent="1" connectable="0" vertex="1">
          <mxGeometry x="-50.0046153846157" y="-986" as="geometry">
            <mxPoint x="-12" y="188" as="offset" />
          </mxGeometry>
        </mxCell>
        <mxCell id="MimmkQN_pH5iQWNIVET2-58" value="&lt;font style=&quot;forced-color-adjust: none; color: rgb(0, 0, 0); font-family: Helvetica; font-style: normal; font-variant-ligatures: normal; font-variant-caps: normal; font-weight: 400; letter-spacing: normal; orphans: 2; text-align: center; text-indent: 0px; text-transform: none; widows: 2; word-spacing: 0px; -webkit-text-stroke-width: 0px; white-space: nowrap; text-decoration-thickness: initial; text-decoration-style: initial; text-decoration-color: initial; font-size: 20px;&quot;&gt;rs_1&lt;/font&gt;&lt;br class=&quot;Apple-interchange-newline&quot;&gt;&lt;div&gt;&lt;font style=&quot;forced-color-adjust: none; color: rgb(0, 0, 0); font-family: Helvetica; font-style: normal; font-variant-ligatures: normal; font-variant-caps: normal; font-weight: 400; letter-spacing: normal; orphans: 2; text-align: center; text-indent: 0px; text-transform: none; widows: 2; word-spacing: 0px; -webkit-text-stroke-width: 0px; white-space: nowrap; text-decoration-thickness: initial; text-decoration-style: initial; text-decoration-color: initial; font-size: 20px;&quot;&gt;&lt;br&gt;&lt;/font&gt;&lt;/div&gt;" style="text;whiteSpace=wrap;html=1;" parent="1" vertex="1">
          <mxGeometry x="-105" y="-480" width="100" height="50" as="geometry" />
        </mxCell>
        <mxCell id="MimmkQN_pH5iQWNIVET2-59" value="&lt;font style=&quot;forced-color-adjust: none; color: rgb(0, 0, 0); font-family: Helvetica; font-style: normal; font-variant-ligatures: normal; font-variant-caps: normal; font-weight: 400; letter-spacing: normal; orphans: 2; text-indent: 0px; text-transform: none; widows: 2; word-spacing: 0px; -webkit-text-stroke-width: 0px; white-space: nowrap; background-color: rgb(251, 251, 251); text-decoration-thickness: initial; text-decoration-style: initial; text-decoration-color: initial; text-align: center; font-size: 20px;&quot;&gt;rs_2&lt;/font&gt;" style="text;whiteSpace=wrap;html=1;" parent="1" vertex="1">
          <mxGeometry x="-100" y="-430" width="70" height="50" as="geometry" />
        </mxCell>
        <mxCell id="MimmkQN_pH5iQWNIVET2-60" value="" style="endArrow=classic;html=1;rounded=0;entryX=0.986;entryY=0.644;entryDx=0;entryDy=0;entryPerimeter=0;" parent="1" target="h3CtUdWNvLVvWNDMPcVa-77" edge="1">
          <mxGeometry width="50" height="50" relative="1" as="geometry">
            <mxPoint x="360" y="-1000" as="sourcePoint" />
            <mxPoint x="340" y="-1050" as="targetPoint" />
          </mxGeometry>
        </mxCell>
        <mxCell id="MimmkQN_pH5iQWNIVET2-64" value="" style="endArrow=none;html=1;rounded=0;" parent="1" edge="1">
          <mxGeometry width="50" height="50" relative="1" as="geometry">
            <mxPoint x="320" y="-870" as="sourcePoint" />
            <mxPoint x="1040" y="-870" as="targetPoint" />
          </mxGeometry>
        </mxCell>
        <mxCell id="MimmkQN_pH5iQWNIVET2-65" value="" style="endArrow=none;html=1;rounded=0;" parent="1" edge="1">
          <mxGeometry width="50" height="50" relative="1" as="geometry">
            <mxPoint x="1040" y="-870" as="sourcePoint" />
            <mxPoint x="1040" y="-1000" as="targetPoint" />
          </mxGeometry>
        </mxCell>
        <mxCell id="MimmkQN_pH5iQWNIVET2-66" value="" style="endArrow=classic;html=1;rounded=0;entryX=0.657;entryY=1;entryDx=0;entryDy=0;entryPerimeter=0;" parent="1" target="idpTYqr38m1hENi_6hJd-10" edge="1">
          <mxGeometry width="50" height="50" relative="1" as="geometry">
            <mxPoint x="1040" y="-1000" as="sourcePoint" />
            <mxPoint x="1090" y="-1050" as="targetPoint" />
          </mxGeometry>
        </mxCell>
        <mxCell id="MimmkQN_pH5iQWNIVET2-67" value="" style="endArrow=none;html=1;rounded=0;" parent="1" edge="1">
          <mxGeometry width="50" height="50" relative="1" as="geometry">
            <mxPoint x="280" y="-760" as="sourcePoint" />
            <mxPoint x="320" y="-760" as="targetPoint" />
          </mxGeometry>
        </mxCell>
        <mxCell id="MimmkQN_pH5iQWNIVET2-68" value="" style="endArrow=none;html=1;rounded=0;" parent="1" edge="1">
          <mxGeometry width="50" height="50" relative="1" as="geometry">
            <mxPoint x="320" y="-760" as="sourcePoint" />
            <mxPoint x="320" y="-870" as="targetPoint" />
          </mxGeometry>
        </mxCell>
        <mxCell id="MimmkQN_pH5iQWNIVET2-71" value="" style="endArrow=none;html=1;rounded=0;" parent="1" target="VG8MHKJ1vHQQKtuOWax9-5" edge="1">
          <mxGeometry width="50" height="50" relative="1" as="geometry">
            <mxPoint x="-110" y="-120" as="sourcePoint" />
            <mxPoint x="-110" y="-400" as="targetPoint" />
          </mxGeometry>
        </mxCell>
        <mxCell id="MimmkQN_pH5iQWNIVET2-72" value="" style="triangle;whiteSpace=wrap;html=1;rotation=-90;" parent="1" vertex="1">
          <mxGeometry x="1160" y="-610" width="40" height="40" as="geometry" />
        </mxCell>
        <mxCell id="MimmkQN_pH5iQWNIVET2-73" value="" style="triangle;whiteSpace=wrap;html=1;rotation=-90;" parent="1" vertex="1">
          <mxGeometry x="1160" y="-990" width="40" height="40" as="geometry" />
        </mxCell>
        <mxCell id="MimmkQN_pH5iQWNIVET2-74" value="" style="triangle;whiteSpace=wrap;html=1;rotation=-90;" parent="1" vertex="1">
          <mxGeometry x="1160" y="-90" width="40" height="40" as="geometry" />
        </mxCell>
        <mxCell id="MimmkQN_pH5iQWNIVET2-75" value="" style="triangle;whiteSpace=wrap;html=1;rotation=-90;" parent="1" vertex="1">
          <mxGeometry x="1160" y="310" width="40" height="40" as="geometry" />
        </mxCell>
        <mxCell id="MimmkQN_pH5iQWNIVET2-77" value="" style="endArrow=none;html=1;rounded=0;exitX=0.5;exitY=0;exitDx=0;exitDy=0;" parent="1" source="h3CtUdWNvLVvWNDMPcVa-10" edge="1">
          <mxGeometry width="50" height="50" relative="1" as="geometry">
            <mxPoint x="-260" y="-760" as="sourcePoint" />
            <mxPoint x="-140" y="-780" as="targetPoint" />
          </mxGeometry>
        </mxCell>
        <mxCell id="MimmkQN_pH5iQWNIVET2-78" value="" style="endArrow=none;html=1;rounded=0;" parent="1" edge="1">
          <mxGeometry width="50" height="50" relative="1" as="geometry">
            <mxPoint x="-140" y="-690" as="sourcePoint" />
            <mxPoint x="-140" y="-780" as="targetPoint" />
          </mxGeometry>
        </mxCell>
        <mxCell id="MimmkQN_pH5iQWNIVET2-80" value="" style="endArrow=classic;html=1;rounded=0;" parent="1" edge="1">
          <mxGeometry width="50" height="50" relative="1" as="geometry">
            <mxPoint x="470" y="-637" as="sourcePoint" />
            <mxPoint x="720" y="-635" as="targetPoint" />
          </mxGeometry>
        </mxCell>
        <mxCell id="MimmkQN_pH5iQWNIVET2-82" value="" style="endArrow=classic;html=1;rounded=0;" parent="1" edge="1">
          <mxGeometry width="50" height="50" relative="1" as="geometry">
            <mxPoint x="510" y="-590.4300000000001" as="sourcePoint" />
            <mxPoint x="720" y="-590" as="targetPoint" />
          </mxGeometry>
        </mxCell>
        <mxCell id="MimmkQN_pH5iQWNIVET2-83" value="&lt;font style=&quot;font-size: 35px;&quot;&gt;0&lt;/font&gt;" style="edgeLabel;html=1;align=center;verticalAlign=middle;resizable=0;points=[];" parent="MimmkQN_pH5iQWNIVET2-82" connectable="0" vertex="1">
          <mxGeometry x="-0.2642" relative="1" as="geometry">
            <mxPoint x="-64" as="offset" />
          </mxGeometry>
        </mxCell>
        <mxCell id="MimmkQN_pH5iQWNIVET2-85" value="" style="endArrow=classic;html=1;rounded=0;exitX=0.399;exitY=-0.026;exitDx=0;exitDy=0;exitPerimeter=0;" parent="1" edge="1">
          <mxGeometry width="50" height="50" relative="1" as="geometry">
            <mxPoint x="743.91" y="-462.9700000000004" as="sourcePoint" />
            <mxPoint x="744.62" y="-561.41" as="targetPoint" />
            <Array as="points">
              <mxPoint x="744.62" y="-511.41" />
            </Array>
          </mxGeometry>
        </mxCell>
        <mxCell id="MimmkQN_pH5iQWNIVET2-97" value="" style="endArrow=classic;html=1;rounded=0;" parent="1" edge="1">
          <mxGeometry width="50" height="50" relative="1" as="geometry">
            <mxPoint x="720" y="-320" as="sourcePoint" />
            <mxPoint x="890" y="-320" as="targetPoint" />
          </mxGeometry>
        </mxCell>
        <mxCell id="MimmkQN_pH5iQWNIVET2-98" value="" style="endArrow=classic;html=1;rounded=0;entryX=0.16;entryY=0.984;entryDx=0;entryDy=0;entryPerimeter=0;" parent="1" edge="1">
          <mxGeometry width="50" height="50" relative="1" as="geometry">
            <mxPoint x="-110" y="-280" as="sourcePoint" />
            <mxPoint x="890.0150000000003" y="-278.84500000000025" as="targetPoint" />
          </mxGeometry>
        </mxCell>
        <mxCell id="MimmkQN_pH5iQWNIVET2-100" value="" style="endArrow=classic;html=1;rounded=0;entryX=0.338;entryY=1.084;entryDx=0;entryDy=0;entryPerimeter=0;" parent="1" edge="1">
          <mxGeometry width="50" height="50" relative="1" as="geometry">
            <mxPoint x="-110" y="-200" as="sourcePoint" />
            <mxPoint x="886.0150000000003" y="-197.1875" as="targetPoint" />
          </mxGeometry>
        </mxCell>
        <mxCell id="MimmkQN_pH5iQWNIVET2-101" value="" style="endArrow=classic;html=1;rounded=0;entryX=0.421;entryY=0.984;entryDx=0;entryDy=0;entryPerimeter=0;" parent="1" edge="1">
          <mxGeometry width="50" height="50" relative="1" as="geometry">
            <mxPoint x="-110" y="-162.5" as="sourcePoint" />
            <mxPoint x="890.0150000000003" y="-159.11124999999993" as="targetPoint" />
          </mxGeometry>
        </mxCell>
        <mxCell id="MimmkQN_pH5iQWNIVET2-103" value="" style="endArrow=classic;html=1;rounded=0;entryX=0.5;entryY=1;entryDx=0;entryDy=0;" parent="1" edge="1">
          <mxGeometry width="50" height="50" relative="1" as="geometry">
            <mxPoint x="-110" y="-120" as="sourcePoint" />
            <mxPoint x="889.375" y="-122.86999999999989" as="targetPoint" />
          </mxGeometry>
        </mxCell>
        <mxCell id="MimmkQN_pH5iQWNIVET2-105" value="" style="endArrow=classic;html=1;rounded=0;" parent="1" edge="1">
          <mxGeometry width="50" height="50" relative="1" as="geometry">
            <mxPoint x="-140" y="-690" as="sourcePoint" />
            <mxPoint x="720" y="-687" as="targetPoint" />
          </mxGeometry>
        </mxCell>
        <mxCell id="MimmkQN_pH5iQWNIVET2-107" value="" style="endArrow=classic;html=1;rounded=0;" parent="1" edge="1">
          <mxGeometry width="50" height="50" relative="1" as="geometry">
            <mxPoint x="-170" y="-710" as="sourcePoint" />
            <mxPoint x="724" y="-712" as="targetPoint" />
          </mxGeometry>
        </mxCell>
        <mxCell id="MimmkQN_pH5iQWNIVET2-108" value="" style="endArrow=classic;html=1;rounded=0;entryX=0.875;entryY=0.984;entryDx=0;entryDy=0;entryPerimeter=0;" parent="1" edge="1">
          <mxGeometry width="50" height="50" relative="1" as="geometry">
            <mxPoint x="800" y="-92" as="sourcePoint" />
            <mxPoint x="890.0150000000003" y="-91.83874999999989" as="targetPoint" />
          </mxGeometry>
        </mxCell>
        <mxCell id="MimmkQN_pH5iQWNIVET2-109" value="&lt;font style=&quot;font-size: 35px;&quot;&gt;0&lt;/font&gt;" style="edgeLabel;html=1;align=center;verticalAlign=middle;resizable=0;points=[];" parent="MimmkQN_pH5iQWNIVET2-108" connectable="0" vertex="1">
          <mxGeometry x="0.2457" y="-1" relative="1" as="geometry">
            <mxPoint x="-76" as="offset" />
          </mxGeometry>
        </mxCell>
        <mxCell id="MimmkQN_pH5iQWNIVET2-112" value="" style="endArrow=classic;html=1;rounded=0;" parent="1" edge="1">
          <mxGeometry width="50" height="50" relative="1" as="geometry">
            <mxPoint x="910" y="-33" as="sourcePoint" />
            <mxPoint x="910" y="-63" as="targetPoint" />
          </mxGeometry>
        </mxCell>
        <mxCell id="MimmkQN_pH5iQWNIVET2-113" value="&lt;font color=&quot;#3333ff&quot;&gt;&lt;font style=&quot;forced-color-adjust: none; font-family: Helvetica; font-style: normal; font-variant-ligatures: normal; font-variant-caps: normal; font-weight: 400; letter-spacing: normal; orphans: 2; text-align: left; text-indent: 0px; text-transform: none; widows: 2; word-spacing: 0px; -webkit-text-stroke-width: 0px; white-space: normal; background-color: rgb(251, 251, 251); text-decoration-thickness: initial; text-decoration-style: initial; text-decoration-color: initial; font-size: 30px;&quot;&gt;op1_mux_sel_D&lt;/font&gt;&lt;br class=&quot;Apple-interchange-newline&quot;&gt;&lt;/font&gt;&lt;div&gt;&lt;font style=&quot;forced-color-adjust: none; color: rgb(0, 0, 0); font-family: Helvetica; font-style: normal; font-variant-ligatures: normal; font-variant-caps: normal; font-weight: 400; letter-spacing: normal; orphans: 2; text-align: left; text-indent: 0px; text-transform: none; widows: 2; word-spacing: 0px; -webkit-text-stroke-width: 0px; white-space: normal; background-color: rgb(251, 251, 251); text-decoration-thickness: initial; text-decoration-style: initial; text-decoration-color: initial; font-size: 30px;&quot;&gt;&lt;br&gt;&lt;/font&gt;&lt;/div&gt;" style="text;whiteSpace=wrap;html=1;" parent="1" vertex="1">
          <mxGeometry x="800" y="-45" width="250" height="60" as="geometry" />
        </mxCell>
        <mxCell id="MimmkQN_pH5iQWNIVET2-119" value="&lt;span style=&quot;color: rgb(0, 0, 0); font-family: Helvetica; font-size: 23px; font-style: normal; font-variant-ligatures: normal; font-variant-caps: normal; font-weight: 400; letter-spacing: normal; orphans: 2; text-align: left; text-indent: 0px; text-transform: none; widows: 2; word-spacing: 0px; -webkit-text-stroke-width: 0px; white-space: normal; background-color: rgb(251, 251, 251); text-decoration-thickness: initial; text-decoration-style: initial; text-decoration-color: initial; display: inline !important; float: none;&quot;&gt;add&lt;/span&gt;" style="text;whiteSpace=wrap;html=1;" parent="1" vertex="1">
          <mxGeometry x="-1155" y="-475" width="90" height="50" as="geometry" />
        </mxCell>
        <mxCell id="MimmkQN_pH5iQWNIVET2-120" value="" style="endArrow=none;html=1;rounded=0;" parent="1" edge="1">
          <mxGeometry width="50" height="50" relative="1" as="geometry">
            <mxPoint x="-880" y="-280" as="sourcePoint" />
            <mxPoint x="-880" y="-400" as="targetPoint" />
          </mxGeometry>
        </mxCell>
        <mxCell id="MimmkQN_pH5iQWNIVET2-121" value="" style="endArrow=classic;html=1;rounded=0;entryX=0.403;entryY=0.983;entryDx=0;entryDy=0;entryPerimeter=0;" parent="1" target="h3CtUdWNvLVvWNDMPcVa-56" edge="1">
          <mxGeometry width="50" height="50" relative="1" as="geometry">
            <mxPoint x="-880" y="-280" as="sourcePoint" />
            <mxPoint x="-830" y="-330" as="targetPoint" />
          </mxGeometry>
        </mxCell>
        <mxCell id="MimmkQN_pH5iQWNIVET2-122" value="" style="endArrow=none;dashed=1;html=1;strokeWidth=5;rounded=0;" parent="1" edge="1">
          <mxGeometry width="50" height="50" relative="1" as="geometry">
            <mxPoint x="-1067.5" y="680" as="sourcePoint" />
            <mxPoint x="-1052.5" y="-1560" as="targetPoint" />
          </mxGeometry>
        </mxCell>
        <mxCell id="MimmkQN_pH5iQWNIVET2-129" value="" style="endArrow=none;dashed=1;html=1;strokeWidth=5;rounded=0;" parent="1" target="h3CtUdWNvLVvWNDMPcVa-12" edge="1">
          <mxGeometry width="50" height="50" relative="1" as="geometry">
            <mxPoint x="-281" y="680" as="sourcePoint" />
            <mxPoint x="-281.00000000000006" y="-1451.25" as="targetPoint" />
          </mxGeometry>
        </mxCell>
        <mxCell id="h3CtUdWNvLVvWNDMPcVa-12" value="" style="rounded=0;whiteSpace=wrap;html=1;rotation=90;fillColor=#dae8fc;strokeColor=#6c8ebf;" parent="1" vertex="1">
          <mxGeometry x="-345" y="-425" width="120" height="40" as="geometry" />
        </mxCell>
        <mxCell id="MimmkQN_pH5iQWNIVET2-130" value="" style="triangle;whiteSpace=wrap;html=1;rotation=-90;" parent="1" vertex="1">
          <mxGeometry x="-305" y="-380" width="40" height="40" as="geometry" />
        </mxCell>
        <mxCell id="oXpKcVIRyjbRH13NVvt_-6" value="" style="endArrow=classic;html=1;rounded=0;" parent="1" edge="1">
          <mxGeometry width="50" height="50" relative="1" as="geometry">
            <mxPoint x="1440" y="-1080" as="sourcePoint" />
            <mxPoint x="1650" y="-1080" as="targetPoint" />
          </mxGeometry>
        </mxCell>
        <mxCell id="oXpKcVIRyjbRH13NVvt_-7" value="" style="endArrow=none;html=1;rounded=0;" parent="1" edge="1">
          <mxGeometry width="50" height="50" relative="1" as="geometry">
            <mxPoint x="1200" y="-640" as="sourcePoint" />
            <mxPoint x="1440" y="-640" as="targetPoint" />
          </mxGeometry>
        </mxCell>
        <mxCell id="oXpKcVIRyjbRH13NVvt_-8" value="" style="endArrow=none;html=1;rounded=0;" parent="1" source="Ue21A1zpUpgJSjjASwve-59" edge="1">
          <mxGeometry width="50" height="50" relative="1" as="geometry">
            <mxPoint x="1440" y="-640" as="sourcePoint" />
            <mxPoint x="1440" y="-1080" as="targetPoint" />
          </mxGeometry>
        </mxCell>
        <mxCell id="oXpKcVIRyjbRH13NVvt_-12" value="" style="endArrow=classic;html=1;rounded=0;" parent="1" edge="1">
          <mxGeometry width="50" height="50" relative="1" as="geometry">
            <mxPoint x="1440" y="-411" as="sourcePoint" />
            <mxPoint x="1510" y="-411" as="targetPoint" />
          </mxGeometry>
        </mxCell>
        <mxCell id="oXpKcVIRyjbRH13NVvt_-13" value="" style="endArrow=none;html=1;rounded=0;" parent="1" target="VG8MHKJ1vHQQKtuOWax9-8" edge="1">
          <mxGeometry width="50" height="50" relative="1" as="geometry">
            <mxPoint x="1200" y="-120" as="sourcePoint" />
            <mxPoint x="1400" y="-120" as="targetPoint" />
          </mxGeometry>
        </mxCell>
        <mxCell id="oXpKcVIRyjbRH13NVvt_-14" value="" style="endArrow=none;html=1;rounded=0;" parent="1" edge="1">
          <mxGeometry width="50" height="50" relative="1" as="geometry">
            <mxPoint x="1400" y="-120" as="sourcePoint" />
            <mxPoint x="1400" y="-830" as="targetPoint" />
          </mxGeometry>
        </mxCell>
        <mxCell id="oXpKcVIRyjbRH13NVvt_-21" value="&lt;span style=&quot;font-size: 30px;&quot;&gt;result_AW&lt;/span&gt;" style="text;whiteSpace=wrap;html=1;" parent="1" vertex="1">
          <mxGeometry x="4000" y="-590" width="250" height="60" as="geometry" />
        </mxCell>
        <mxCell id="oXpKcVIRyjbRH13NVvt_-22" value="" style="rounded=0;whiteSpace=wrap;html=1;rotation=90;fillColor=#dae8fc;strokeColor=#6c8ebf;" parent="1" vertex="1">
          <mxGeometry x="3980" y="-692" width="140" height="40" as="geometry" />
        </mxCell>
        <mxCell id="oXpKcVIRyjbRH13NVvt_-24" value="&lt;span style=&quot;font-size: 30px;&quot;&gt;regfile(write)&lt;/span&gt;&lt;div&gt;&lt;span style=&quot;font-size: 30px;&quot;&gt;&lt;br&gt;&lt;/span&gt;&lt;/div&gt;" style="text;whiteSpace=wrap;html=1;" parent="1" vertex="1">
          <mxGeometry x="4450" y="-702" width="250" height="60" as="geometry" />
        </mxCell>
        <mxCell id="oXpKcVIRyjbRH13NVvt_-31" value="" style="triangle;whiteSpace=wrap;html=1;rotation=-90;" parent="1" vertex="1">
          <mxGeometry x="4030" y="-642" width="40" height="40" as="geometry" />
        </mxCell>
        <mxCell id="oXpKcVIRyjbRH13NVvt_-33" value="" style="endArrow=none;html=1;rounded=0;" parent="1" edge="1">
          <mxGeometry width="50" height="50" relative="1" as="geometry">
            <mxPoint x="1200" y="290" as="sourcePoint" />
            <mxPoint x="1560" y="290" as="targetPoint" />
            <Array as="points">
              <mxPoint x="1560" y="290" />
            </Array>
          </mxGeometry>
        </mxCell>
        <mxCell id="oXpKcVIRyjbRH13NVvt_-34" value="" style="endArrow=none;html=1;rounded=0;" parent="1" edge="1">
          <mxGeometry width="50" height="50" relative="1" as="geometry">
            <mxPoint x="1560" y="290" as="sourcePoint" />
            <mxPoint x="1560" y="170" as="targetPoint" />
          </mxGeometry>
        </mxCell>
        <mxCell id="oXpKcVIRyjbRH13NVvt_-56" value="&lt;font style=&quot;font-size: 20px;&quot; color=&quot;#3333ff&quot;&gt;branch_cond_it/ltu/ge/geu_X&lt;/font&gt;" style="text;whiteSpace=wrap;html=1;" parent="1" vertex="1">
          <mxGeometry x="1610" y="-515" width="250" height="60" as="geometry" />
        </mxCell>
        <mxCell id="oXpKcVIRyjbRH13NVvt_-57" value="&lt;span style=&quot;font-family: Helvetica; font-style: normal; font-variant-ligatures: normal; font-variant-caps: normal; font-weight: 400; letter-spacing: normal; orphans: 2; text-align: left; text-indent: 0px; text-transform: none; widows: 2; word-spacing: 0px; -webkit-text-stroke-width: 0px; white-space: normal; background-color: rgb(251, 251, 251); text-decoration-thickness: initial; text-decoration-style: initial; text-decoration-color: initial; float: none; display: inline !important;&quot;&gt;&lt;font style=&quot;font-size: 20px;&quot; color=&quot;#3333ff&quot;&gt;branch_cond_eq/ne_X&lt;/font&gt;&lt;/span&gt;" style="text;whiteSpace=wrap;html=1;" parent="1" vertex="1">
          <mxGeometry x="1660" y="-1110" width="230" height="40" as="geometry" />
        </mxCell>
        <mxCell id="oXpKcVIRyjbRH13NVvt_-58" value="" style="endArrow=classic;html=1;rounded=0;" parent="1" edge="1">
          <mxGeometry width="50" height="50" relative="1" as="geometry">
            <mxPoint x="1600" y="-100" as="sourcePoint" />
            <mxPoint x="1600.29" y="-150" as="targetPoint" />
          </mxGeometry>
        </mxCell>
        <mxCell id="oXpKcVIRyjbRH13NVvt_-59" value="&lt;span style=&quot;font-family: Helvetica; font-size: 30px; font-style: normal; font-variant-ligatures: normal; font-variant-caps: normal; font-weight: 400; letter-spacing: normal; orphans: 2; text-align: left; text-indent: 0px; text-transform: none; widows: 2; word-spacing: 0px; -webkit-text-stroke-width: 0px; white-space: normal; background-color: rgb(251, 251, 251); text-decoration-thickness: initial; text-decoration-style: initial; text-decoration-color: initial; float: none; display: inline !important;&quot;&gt;&lt;font color=&quot;#3333ff&quot;&gt;alu_fn_D&lt;/font&gt;&lt;/span&gt;" style="text;whiteSpace=wrap;html=1;" parent="1" vertex="1">
          <mxGeometry x="1530" y="-107" width="130" height="60" as="geometry" />
        </mxCell>
        <mxCell id="oXpKcVIRyjbRH13NVvt_-61" value="" style="endArrow=classic;html=1;rounded=0;" parent="1" edge="1">
          <mxGeometry width="50" height="50" relative="1" as="geometry">
            <mxPoint x="2330" y="128.5" as="sourcePoint" />
            <mxPoint x="2458" y="129" as="targetPoint" />
          </mxGeometry>
        </mxCell>
        <mxCell id="oXpKcVIRyjbRH13NVvt_-64" value="&lt;div&gt;&lt;span style=&quot;font-size: 30px;&quot;&gt;&lt;font color=&quot;#3333ff&quot;&gt;dmem_msg_rw_M&lt;/font&gt;&lt;/span&gt;&lt;/div&gt;" style="text;whiteSpace=wrap;html=1;" parent="1" vertex="1">
          <mxGeometry x="1530" y="370" width="250" height="60" as="geometry" />
        </mxCell>
        <mxCell id="oXpKcVIRyjbRH13NVvt_-65" value="" style="endArrow=classic;html=1;rounded=0;entryX=0.419;entryY=1;entryDx=0;entryDy=0;entryPerimeter=0;" parent="1" target="idpTYqr38m1hENi_6hJd-23" edge="1">
          <mxGeometry width="50" height="50" relative="1" as="geometry">
            <mxPoint x="2000" y="116" as="sourcePoint" />
            <mxPoint x="2050" y="69" as="targetPoint" />
          </mxGeometry>
        </mxCell>
        <mxCell id="oXpKcVIRyjbRH13NVvt_-66" value="" style="endArrow=none;html=1;rounded=0;" parent="1" target="VG8MHKJ1vHQQKtuOWax9-12" edge="1">
          <mxGeometry width="50" height="50" relative="1" as="geometry">
            <mxPoint x="2040" y="357" as="sourcePoint" />
            <mxPoint x="2040" y="117" as="targetPoint" />
          </mxGeometry>
        </mxCell>
        <mxCell id="oXpKcVIRyjbRH13NVvt_-67" value="" style="endArrow=classic;html=1;rounded=0;entryX=0.408;entryY=1.05;entryDx=0;entryDy=0;entryPerimeter=0;" parent="1" edge="1">
          <mxGeometry width="50" height="50" relative="1" as="geometry">
            <mxPoint x="2040" y="357" as="sourcePoint" />
            <mxPoint x="2138" y="355.96000000000004" as="targetPoint" />
          </mxGeometry>
        </mxCell>
        <mxCell id="oXpKcVIRyjbRH13NVvt_-68" value="" style="endArrow=none;html=1;rounded=0;" parent="1" edge="1">
          <mxGeometry width="50" height="50" relative="1" as="geometry">
            <mxPoint x="2180" y="359" as="sourcePoint" />
            <mxPoint x="2230" y="359" as="targetPoint" />
          </mxGeometry>
        </mxCell>
        <mxCell id="oXpKcVIRyjbRH13NVvt_-69" value="" style="endArrow=none;html=1;rounded=0;" parent="1" edge="1">
          <mxGeometry width="50" height="50" relative="1" as="geometry">
            <mxPoint x="2230" y="360" as="sourcePoint" />
            <mxPoint x="2230" y="170" as="targetPoint" />
          </mxGeometry>
        </mxCell>
        <mxCell id="oXpKcVIRyjbRH13NVvt_-70" value="" style="endArrow=classic;html=1;rounded=0;" parent="1" edge="1">
          <mxGeometry width="50" height="50" relative="1" as="geometry">
            <mxPoint x="2230" y="170" as="sourcePoint" />
            <mxPoint x="2270" y="170" as="targetPoint" />
          </mxGeometry>
        </mxCell>
        <mxCell id="oXpKcVIRyjbRH13NVvt_-73" value="" style="endArrow=classic;html=1;rounded=0;" parent="1" edge="1">
          <mxGeometry width="50" height="50" relative="1" as="geometry">
            <mxPoint x="2524.5" y="200" as="sourcePoint" />
            <mxPoint x="2524.5" y="150" as="targetPoint" />
          </mxGeometry>
        </mxCell>
        <mxCell id="oXpKcVIRyjbRH13NVvt_-75" value="&lt;div&gt;&lt;span style=&quot;font-size: 30px;&quot;&gt;&lt;font color=&quot;#3333ff&quot;&gt;dmemresp_mux_sel_M&lt;/font&gt;&lt;/span&gt;&lt;/div&gt;&lt;div&gt;&lt;span style=&quot;font-size: 30px;&quot;&gt;&lt;font color=&quot;#3333ff&quot;&gt;&lt;br&gt;&lt;/font&gt;&lt;/span&gt;&lt;div&gt;&lt;span style=&quot;font-size: 30px;&quot;&gt;&lt;br&gt;&lt;/span&gt;&lt;/div&gt;&lt;/div&gt;" style="text;whiteSpace=wrap;html=1;" parent="1" vertex="1">
          <mxGeometry x="2390" y="190" width="250" height="60" as="geometry" />
        </mxCell>
        <mxCell id="oXpKcVIRyjbRH13NVvt_-80" value="" style="endArrow=classic;html=1;rounded=0;" parent="1" edge="1">
          <mxGeometry width="50" height="50" relative="1" as="geometry">
            <mxPoint x="3840" y="-681" as="sourcePoint" />
            <mxPoint x="4020" y="-681" as="targetPoint" />
          </mxGeometry>
        </mxCell>
        <mxCell id="oXpKcVIRyjbRH13NVvt_-81" value="" style="endArrow=classic;html=1;rounded=0;" parent="1" edge="1">
          <mxGeometry width="50" height="50" relative="1" as="geometry">
            <mxPoint x="4070" y="-680" as="sourcePoint" />
            <mxPoint x="4340" y="-680" as="targetPoint" />
          </mxGeometry>
        </mxCell>
        <mxCell id="oXpKcVIRyjbRH13NVvt_-84" value="" style="endArrow=classic;html=1;rounded=0;" parent="1" edge="1">
          <mxGeometry width="50" height="50" relative="1" as="geometry">
            <mxPoint x="4200" y="-680" as="sourcePoint" />
            <mxPoint x="4200" y="-510" as="targetPoint" />
          </mxGeometry>
        </mxCell>
        <mxCell id="oXpKcVIRyjbRH13NVvt_-85" value="&lt;div&gt;&lt;span style=&quot;font-size: 30px;&quot;&gt;&lt;font color=&quot;#3333ff&quot;&gt;proc2csr_data_Whl&lt;/font&gt;&lt;/span&gt;&lt;/div&gt;&lt;div&gt;&lt;span style=&quot;font-size: 30px;&quot;&gt;&lt;br&gt;&lt;/span&gt;&lt;/div&gt;" style="text;whiteSpace=wrap;html=1;" parent="1" vertex="1">
          <mxGeometry x="4100" y="-501.40999999999997" width="250" height="60" as="geometry" />
        </mxCell>
        <mxCell id="oXpKcVIRyjbRH13NVvt_-86" value="" style="endArrow=classic;html=1;rounded=0;" parent="1" edge="1">
          <mxGeometry width="50" height="50" relative="1" as="geometry">
            <mxPoint x="4450" y="-910" as="sourcePoint" />
            <mxPoint x="4450" y="-750" as="targetPoint" />
          </mxGeometry>
        </mxCell>
        <mxCell id="oXpKcVIRyjbRH13NVvt_-87" value="" style="endArrow=classic;html=1;rounded=0;" parent="1" edge="1">
          <mxGeometry width="50" height="50" relative="1" as="geometry">
            <mxPoint x="4630" y="-910" as="sourcePoint" />
            <mxPoint x="4630" y="-750" as="targetPoint" />
          </mxGeometry>
        </mxCell>
        <mxCell id="oXpKcVIRyjbRH13NVvt_-88" value="&lt;div&gt;&lt;span style=&quot;font-size: 30px;&quot;&gt;&lt;font color=&quot;#3333ff&quot;&gt;rfA_waddr_W&lt;/font&gt;&lt;/span&gt;&lt;/div&gt;" style="text;whiteSpace=wrap;html=1;" parent="1" vertex="1">
          <mxGeometry x="4370" y="-980" width="250" height="60" as="geometry" />
        </mxCell>
        <mxCell id="oXpKcVIRyjbRH13NVvt_-89" value="&lt;div&gt;&lt;span style=&quot;font-size: 30px;&quot;&gt;&lt;font color=&quot;#3333ff&quot;&gt;rfA_wen_W&lt;/font&gt;&lt;/span&gt;&lt;/div&gt;" style="text;whiteSpace=wrap;html=1;" parent="1" vertex="1">
          <mxGeometry x="4580" y="-980" width="250" height="60" as="geometry" />
        </mxCell>
        <mxCell id="oXpKcVIRyjbRH13NVvt_-90" value="&lt;div style=&quot;text-align: center;&quot;&gt;&lt;span style=&quot;background-color: initial;&quot;&gt;&lt;font style=&quot;font-size: 80px;&quot;&gt;Fetch(F)&lt;/font&gt;&lt;/span&gt;&lt;/div&gt;" style="text;whiteSpace=wrap;html=1;rotation=0;" parent="1" vertex="1">
          <mxGeometry x="-860" y="490" width="110" height="60" as="geometry" />
        </mxCell>
        <mxCell id="oXpKcVIRyjbRH13NVvt_-91" value="&lt;span style=&quot;color: rgb(0, 0, 0); font-family: Helvetica; font-size: 80px; font-style: normal; font-variant-ligatures: normal; font-variant-caps: normal; font-weight: 400; letter-spacing: normal; orphans: 2; text-align: center; text-indent: 0px; text-transform: none; widows: 2; word-spacing: 0px; -webkit-text-stroke-width: 0px; white-space: normal; background-color: rgb(251, 251, 251); text-decoration-thickness: initial; text-decoration-style: initial; text-decoration-color: initial; display: inline !important; float: none;&quot;&gt;Decode(D)&lt;/span&gt;" style="text;whiteSpace=wrap;html=1;" parent="1" vertex="1">
          <mxGeometry x="-110" y="530" width="340" height="120" as="geometry" />
        </mxCell>
        <mxCell id="oXpKcVIRyjbRH13NVvt_-92" value="" style="endArrow=none;dashed=1;html=1;strokeWidth=5;rounded=0;" parent="1" edge="1" source="rHNaq6syW2K50itlWnIk-119">
          <mxGeometry width="50" height="50" relative="1" as="geometry">
            <mxPoint x="1171.75" y="680" as="sourcePoint" />
            <mxPoint x="1188.25" y="-1570" as="targetPoint" />
          </mxGeometry>
        </mxCell>
        <mxCell id="oXpKcVIRyjbRH13NVvt_-94" value="&lt;span style=&quot;color: rgb(0, 0, 0); font-family: Helvetica; font-size: 80px; font-style: normal; font-variant-ligatures: normal; font-variant-caps: normal; font-weight: 400; letter-spacing: normal; orphans: 2; text-align: center; text-indent: 0px; text-transform: none; widows: 2; word-spacing: 0px; -webkit-text-stroke-width: 0px; white-space: normal; background-color: rgb(251, 251, 251); text-decoration-thickness: initial; text-decoration-style: initial; text-decoration-color: initial; display: inline !important; float: none;&quot;&gt;Execute(X)&lt;/span&gt;" style="text;whiteSpace=wrap;html=1;" parent="1" vertex="1">
          <mxGeometry x="1310" y="510" width="340" height="120" as="geometry" />
        </mxCell>
        <mxCell id="oXpKcVIRyjbRH13NVvt_-96" value="" style="endArrow=none;dashed=1;html=1;strokeWidth=5;rounded=0;" parent="1" edge="1">
          <mxGeometry width="50" height="50" relative="1" as="geometry">
            <mxPoint x="4050" y="730" as="sourcePoint" />
            <mxPoint x="4059" y="-1800" as="targetPoint" />
          </mxGeometry>
        </mxCell>
        <mxCell id="oXpKcVIRyjbRH13NVvt_-99" value="&lt;span style=&quot;color: rgb(0, 0, 0); font-family: Helvetica; font-size: 80px; font-style: normal; font-variant-ligatures: normal; font-variant-caps: normal; font-weight: 400; letter-spacing: normal; orphans: 2; text-align: center; text-indent: 0px; text-transform: none; widows: 2; word-spacing: 0px; -webkit-text-stroke-width: 0px; white-space: normal; background-color: rgb(251, 251, 251); text-decoration-thickness: initial; text-decoration-style: initial; text-decoration-color: initial; display: inline !important; float: none;&quot;&gt;Writeback(W)&lt;/span&gt;" style="text;whiteSpace=wrap;html=1;" parent="1" vertex="1">
          <mxGeometry x="4350" y="525" width="340" height="120" as="geometry" />
        </mxCell>
        <mxCell id="oXpKcVIRyjbRH13NVvt_-100" value="&lt;span style=&quot;color: rgb(0, 0, 0); font-family: Helvetica; font-size: 80px; font-style: normal; font-variant-ligatures: normal; font-variant-caps: normal; font-weight: 400; letter-spacing: normal; orphans: 2; text-align: center; text-indent: 0px; text-transform: none; widows: 2; word-spacing: 0px; -webkit-text-stroke-width: 0px; white-space: normal; background-color: rgb(251, 251, 251); text-decoration-thickness: initial; text-decoration-style: initial; text-decoration-color: initial; display: inline !important; float: none;&quot;&gt;Memory(M)&lt;/span&gt;" style="text;whiteSpace=wrap;html=1;" parent="1" vertex="1">
          <mxGeometry x="2190" y="520" width="430" height="120" as="geometry" />
        </mxCell>
        <mxCell id="oXpKcVIRyjbRH13NVvt_-103" value="&lt;div style=&quot;text-align: center;&quot;&gt;&lt;span style=&quot;text-wrap: nowrap;&quot;&gt;&lt;font style=&quot;font-size: 25px;&quot;&gt;imm_i&lt;/font&gt;&lt;/span&gt;&lt;/div&gt;" style="text;whiteSpace=wrap;html=1;" parent="1" vertex="1">
          <mxGeometry x="90" y="-320" width="70" height="50" as="geometry" />
        </mxCell>
        <mxCell id="oXpKcVIRyjbRH13NVvt_-104" value="&lt;span style=&quot;color: rgb(0, 0, 0); font-family: Helvetica; font-style: normal; font-variant-ligatures: normal; font-variant-caps: normal; font-weight: 400; letter-spacing: normal; orphans: 2; text-align: center; text-indent: 0px; text-transform: none; widows: 2; word-spacing: 0px; -webkit-text-stroke-width: 0px; white-space: nowrap; background-color: rgb(251, 251, 251); text-decoration-thickness: initial; text-decoration-style: initial; text-decoration-color: initial; float: none; display: inline !important;&quot;&gt;&lt;font style=&quot;font-size: 25px;&quot;&gt;imm_shamt&lt;/font&gt;&lt;/span&gt;" style="text;whiteSpace=wrap;html=1;" parent="1" vertex="1">
          <mxGeometry x="90" y="-280" width="120" as="geometry" />
        </mxCell>
        <mxCell id="oXpKcVIRyjbRH13NVvt_-106" value="&lt;span style=&quot;color: rgb(0, 0, 0); font-family: Helvetica; font-style: normal; font-variant-ligatures: normal; font-variant-caps: normal; font-weight: 400; letter-spacing: normal; orphans: 2; text-align: center; text-indent: 0px; text-transform: none; widows: 2; word-spacing: 0px; -webkit-text-stroke-width: 0px; white-space: nowrap; background-color: rgb(251, 251, 251); text-decoration-thickness: initial; text-decoration-style: initial; text-decoration-color: initial; float: none; display: inline !important;&quot;&gt;&lt;font style=&quot;font-size: 25px;&quot;&gt;imm_u&lt;/font&gt;&lt;/span&gt;" style="text;whiteSpace=wrap;html=1;" parent="1" vertex="1">
          <mxGeometry x="90" y="-240" width="120" height="60" as="geometry" />
        </mxCell>
        <mxCell id="oXpKcVIRyjbRH13NVvt_-108" value="&lt;span style=&quot;color: rgb(0, 0, 0); font-family: Helvetica; font-style: normal; font-variant-ligatures: normal; font-variant-caps: normal; font-weight: 400; letter-spacing: normal; orphans: 2; text-align: center; text-indent: 0px; text-transform: none; widows: 2; word-spacing: 0px; -webkit-text-stroke-width: 0px; white-space: nowrap; background-color: rgb(251, 251, 251); text-decoration-thickness: initial; text-decoration-style: initial; text-decoration-color: initial; float: none; display: inline !important;&quot;&gt;&lt;font style=&quot;font-size: 25px;&quot;&gt;imm_s&lt;/font&gt;&lt;/span&gt;" style="text;whiteSpace=wrap;html=1;" parent="1" vertex="1">
          <mxGeometry x="90" y="-200" width="130" height="60" as="geometry" />
        </mxCell>
        <mxCell id="oXpKcVIRyjbRH13NVvt_-110" value="&lt;span style=&quot;color: rgb(0, 0, 0); font-family: Helvetica; font-style: normal; font-variant-ligatures: normal; font-variant-caps: normal; font-weight: 400; letter-spacing: normal; orphans: 2; text-align: center; text-indent: 0px; text-transform: none; widows: 2; word-spacing: 0px; -webkit-text-stroke-width: 0px; white-space: nowrap; background-color: rgb(251, 251, 251); text-decoration-thickness: initial; text-decoration-style: initial; text-decoration-color: initial; float: none; display: inline !important;&quot;&gt;&lt;font style=&quot;font-size: 25px;&quot;&gt;imm_sb&lt;/font&gt;&lt;/span&gt;" style="text;whiteSpace=wrap;html=1;" parent="1" vertex="1">
          <mxGeometry x="90" y="-162.87" width="130" height="60" as="geometry" />
        </mxCell>
        <mxCell id="VG8MHKJ1vHQQKtuOWax9-2" value="" style="endArrow=none;dashed=1;html=1;strokeWidth=5;rounded=0;" parent="1" edge="1">
          <mxGeometry width="50" height="50" relative="1" as="geometry">
            <mxPoint x="-283" y="-330" as="sourcePoint" />
            <mxPoint x="-283" y="-1570" as="targetPoint" />
          </mxGeometry>
        </mxCell>
        <mxCell id="VG8MHKJ1vHQQKtuOWax9-4" value="" style="endArrow=none;html=1;rounded=0;" parent="1" edge="1">
          <mxGeometry width="50" height="50" relative="1" as="geometry">
            <mxPoint x="-1580" y="-1360" as="sourcePoint" />
            <mxPoint x="910" y="-1360" as="targetPoint" />
          </mxGeometry>
        </mxCell>
        <mxCell id="VG8MHKJ1vHQQKtuOWax9-5" value="" style="shape=waypoint;sketch=0;fillStyle=solid;size=6;pointerEvents=1;points=[];fillColor=none;resizable=0;rotatable=0;perimeter=centerPerimeter;snapToPoint=1;" parent="1" vertex="1">
          <mxGeometry x="-120" y="-410" width="20" height="20" as="geometry" />
        </mxCell>
        <mxCell id="VG8MHKJ1vHQQKtuOWax9-8" value="" style="shape=waypoint;sketch=0;fillStyle=solid;size=6;pointerEvents=1;points=[];fillColor=none;resizable=0;rotatable=0;perimeter=centerPerimeter;snapToPoint=1;" parent="1" vertex="1">
          <mxGeometry x="1390" y="-130" width="20" height="20" as="geometry" />
        </mxCell>
        <mxCell id="VG8MHKJ1vHQQKtuOWax9-9" value="" style="shape=waypoint;sketch=0;fillStyle=solid;size=6;pointerEvents=1;points=[];fillColor=none;resizable=0;rotatable=0;perimeter=centerPerimeter;snapToPoint=1;" parent="1" vertex="1">
          <mxGeometry x="1430" y="-650" width="20" height="20" as="geometry" />
        </mxCell>
        <mxCell id="VG8MHKJ1vHQQKtuOWax9-10" value="" style="endArrow=none;html=1;rounded=0;" parent="1" source="VG8MHKJ1vHQQKtuOWax9-11" edge="1">
          <mxGeometry width="50" height="50" relative="1" as="geometry">
            <mxPoint x="1700" y="40" as="sourcePoint" />
            <mxPoint x="1700" y="-280" as="targetPoint" />
          </mxGeometry>
        </mxCell>
        <mxCell id="VG8MHKJ1vHQQKtuOWax9-12" value="" style="shape=waypoint;sketch=0;fillStyle=solid;size=6;pointerEvents=1;points=[];fillColor=none;resizable=0;rotatable=0;perimeter=centerPerimeter;snapToPoint=1;" parent="1" vertex="1">
          <mxGeometry x="2029.999999999999" y="107" width="20" height="20" as="geometry" />
        </mxCell>
        <mxCell id="VG8MHKJ1vHQQKtuOWax9-13" value="" style="endArrow=classic;html=1;rounded=0;" parent="1" edge="1">
          <mxGeometry width="50" height="50" relative="1" as="geometry">
            <mxPoint x="480" y="290" as="sourcePoint" />
            <mxPoint x="1160" y="290" as="targetPoint" />
          </mxGeometry>
        </mxCell>
        <mxCell id="VG8MHKJ1vHQQKtuOWax9-14" value="" style="endArrow=none;html=1;rounded=0;" parent="1" edge="1">
          <mxGeometry width="50" height="50" relative="1" as="geometry">
            <mxPoint x="290" y="-400" as="sourcePoint" />
            <mxPoint x="480" y="-400" as="targetPoint" />
          </mxGeometry>
        </mxCell>
        <mxCell id="IWSMSolJp26f0NdcNTjL-1" value="" style="endArrow=none;html=1;rounded=0;" parent="1" edge="1">
          <mxGeometry width="50" height="50" relative="1" as="geometry">
            <mxPoint x="-1640" y="-960" as="sourcePoint" />
            <mxPoint x="-1400" y="-960" as="targetPoint" />
          </mxGeometry>
        </mxCell>
        <mxCell id="IWSMSolJp26f0NdcNTjL-2" value="" style="endArrow=none;html=1;rounded=0;" parent="1" edge="1">
          <mxGeometry width="50" height="50" relative="1" as="geometry">
            <mxPoint x="-1640" y="-960" as="sourcePoint" />
            <mxPoint x="-1640" y="-1420" as="targetPoint" />
          </mxGeometry>
        </mxCell>
        <mxCell id="IWSMSolJp26f0NdcNTjL-3" value="" style="endArrow=none;html=1;rounded=0;" parent="1" edge="1">
          <mxGeometry width="50" height="50" relative="1" as="geometry">
            <mxPoint x="-1580" y="-1000" as="sourcePoint" />
            <mxPoint x="-1580" y="-1360" as="targetPoint" />
          </mxGeometry>
        </mxCell>
        <mxCell id="IWSMSolJp26f0NdcNTjL-4" value="" style="endArrow=none;html=1;rounded=0;" parent="1" edge="1">
          <mxGeometry width="50" height="50" relative="1" as="geometry">
            <mxPoint x="-1480" y="-1040" as="sourcePoint" />
            <mxPoint x="-1400" y="-1040" as="targetPoint" />
          </mxGeometry>
        </mxCell>
        <mxCell id="IWSMSolJp26f0NdcNTjL-5" value="" style="endArrow=none;html=1;rounded=0;" parent="1" edge="1">
          <mxGeometry width="50" height="50" relative="1" as="geometry">
            <mxPoint x="-1480" y="-1040" as="sourcePoint" />
            <mxPoint x="-1480" y="-1250" as="targetPoint" />
          </mxGeometry>
        </mxCell>
        <mxCell id="zn3MZnFg3po8sbIGN5-C-2" value="" style="shape=waypoint;sketch=0;fillStyle=solid;size=6;pointerEvents=1;points=[];fillColor=none;resizable=0;rotatable=0;perimeter=centerPerimeter;snapToPoint=1;" parent="1" vertex="1">
          <mxGeometry x="-770" y="-1060" width="20" height="20" as="geometry" />
        </mxCell>
        <mxCell id="zn3MZnFg3po8sbIGN5-C-3" value="" style="endArrow=none;html=1;rounded=0;" parent="1" source="zn3MZnFg3po8sbIGN5-C-7" target="zn3MZnFg3po8sbIGN5-C-4" edge="1">
          <mxGeometry width="50" height="50" relative="1" as="geometry">
            <mxPoint x="-170" y="-680" as="sourcePoint" />
            <mxPoint x="-180" y="-1050" as="targetPoint" />
          </mxGeometry>
        </mxCell>
        <mxCell id="zn3MZnFg3po8sbIGN5-C-4" value="" style="shape=waypoint;sketch=0;fillStyle=solid;size=6;pointerEvents=1;points=[];fillColor=none;resizable=0;rotatable=0;perimeter=centerPerimeter;snapToPoint=1;" parent="1" vertex="1">
          <mxGeometry x="-180" y="-1060" width="20" height="20" as="geometry" />
        </mxCell>
        <mxCell id="zn3MZnFg3po8sbIGN5-C-6" value="" style="endArrow=none;html=1;rounded=0;" parent="1" target="zn3MZnFg3po8sbIGN5-C-7" edge="1">
          <mxGeometry width="50" height="50" relative="1" as="geometry">
            <mxPoint x="-170" y="-710" as="sourcePoint" />
            <mxPoint x="-170" y="-1050" as="targetPoint" />
          </mxGeometry>
        </mxCell>
        <mxCell id="zn3MZnFg3po8sbIGN5-C-7" value="" style="shape=waypoint;sketch=0;fillStyle=solid;size=6;pointerEvents=1;points=[];fillColor=none;resizable=0;rotatable=0;perimeter=centerPerimeter;snapToPoint=1;" parent="1" vertex="1">
          <mxGeometry x="-180" y="-781" width="20" height="20" as="geometry" />
        </mxCell>
        <mxCell id="zn3MZnFg3po8sbIGN5-C-9" value="&lt;span style=&quot;color: rgb(0, 0, 0); font-family: Helvetica; font-size: 30px; font-style: normal; font-variant-ligatures: normal; font-variant-caps: normal; font-weight: 400; letter-spacing: normal; orphans: 2; text-align: center; text-indent: 0px; text-transform: none; widows: 2; word-spacing: 0px; -webkit-text-stroke-width: 0px; white-space: normal; background-color: rgb(251, 251, 251); text-decoration-thickness: initial; text-decoration-style: initial; text-decoration-color: initial; display: inline !important; float: none;&quot;&gt;imem&lt;/span&gt;" style="text;whiteSpace=wrap;html=1;" parent="1" vertex="1">
          <mxGeometry x="-1020" y="-380" width="110" height="60" as="geometry" />
        </mxCell>
        <mxCell id="MX0nCwJX5Nr02eYSxFdz-1" value="" style="shape=trapezoid;perimeter=trapezoidPerimeter;whiteSpace=wrap;html=1;fixedSize=1;rotation=90;fillColor=#dae8fc;strokeColor=#6c8ebf;" parent="1" vertex="1">
          <mxGeometry x="365" y="-615" width="166" height="40" as="geometry" />
        </mxCell>
        <mxCell id="MX0nCwJX5Nr02eYSxFdz-8" value="" style="endArrow=classic;html=1;rounded=0;entryX=0.364;entryY=0.969;entryDx=0;entryDy=0;entryPerimeter=0;" parent="1" target="MX0nCwJX5Nr02eYSxFdz-1" edge="1">
          <mxGeometry width="50" height="50" relative="1" as="geometry">
            <mxPoint x="1700" y="10" as="sourcePoint" />
            <mxPoint x="370" y="-570" as="targetPoint" />
            <Array as="points">
              <mxPoint x="370" y="10" />
              <mxPoint x="370" y="-618" />
            </Array>
          </mxGeometry>
        </mxCell>
        <mxCell id="MX0nCwJX5Nr02eYSxFdz-9" value="" style="endArrow=classic;html=1;rounded=0;entryX=0.47;entryY=1;entryDx=0;entryDy=0;entryPerimeter=0;" parent="1" target="MX0nCwJX5Nr02eYSxFdz-1" edge="1">
          <mxGeometry width="50" height="50" relative="1" as="geometry">
            <mxPoint x="2800" y="-250" as="sourcePoint" />
            <mxPoint x="395" y="-560" as="targetPoint" />
            <Array as="points">
              <mxPoint x="2800" y="20" />
              <mxPoint x="380" y="20" />
              <mxPoint x="380" y="-600" />
            </Array>
          </mxGeometry>
        </mxCell>
        <mxCell id="MX0nCwJX5Nr02eYSxFdz-10" value="" style="endArrow=classic;html=1;rounded=0;entryX=0.597;entryY=0.969;entryDx=0;entryDy=0;entryPerimeter=0;" parent="1" target="MX0nCwJX5Nr02eYSxFdz-1" edge="1">
          <mxGeometry width="50" height="50" relative="1" as="geometry">
            <mxPoint x="3210" y="-240" as="sourcePoint" />
            <mxPoint x="-680.1199999999999" y="-580.6119999999997" as="targetPoint" />
            <Array as="points">
              <mxPoint x="3211" y="-249.39" />
              <mxPoint x="3210" y="30" />
              <mxPoint x="390" y="30" />
              <mxPoint x="390" y="-580" />
            </Array>
          </mxGeometry>
        </mxCell>
        <mxCell id="MX0nCwJX5Nr02eYSxFdz-11" value="&lt;font style=&quot;font-size: 15px;&quot; color=&quot;#3333ff&quot;&gt;&lt;font style=&quot;forced-color-adjust: none; font-family: Helvetica; font-style: normal; font-variant-ligatures: normal; font-variant-caps: normal; font-weight: 400; letter-spacing: normal; orphans: 2; text-align: left; text-indent: 0px; text-transform: none; widows: 2; word-spacing: 0px; -webkit-text-stroke-width: 0px; white-space: normal; background-color: rgb(251, 251, 251); text-decoration-thickness: initial; text-decoration-style: initial; text-decoration-color: initial; font-size: 15px;&quot;&gt;rs1_mux_sel_D&lt;/font&gt;&lt;br class=&quot;Apple-interchange-newline&quot;&gt;&lt;/font&gt;&lt;div style=&quot;font-size: 15px;&quot;&gt;&lt;font style=&quot;forced-color-adjust: none; color: rgb(0, 0, 0); font-family: Helvetica; font-style: normal; font-variant-ligatures: normal; font-variant-caps: normal; font-weight: 400; letter-spacing: normal; orphans: 2; text-align: left; text-indent: 0px; text-transform: none; widows: 2; word-spacing: 0px; -webkit-text-stroke-width: 0px; white-space: normal; background-color: rgb(251, 251, 251); text-decoration-thickness: initial; text-decoration-style: initial; text-decoration-color: initial; font-size: 15px;&quot;&gt;&lt;br&gt;&lt;/font&gt;&lt;/div&gt;" style="text;whiteSpace=wrap;html=1;" parent="1" vertex="1">
          <mxGeometry x="414" y="-473" width="130" height="30" as="geometry" />
        </mxCell>
        <mxCell id="MX0nCwJX5Nr02eYSxFdz-12" value="" style="endArrow=classic;html=1;rounded=0;" parent="1" edge="1">
          <mxGeometry width="50" height="50" relative="1" as="geometry">
            <mxPoint x="447.79" y="-472.65" as="sourcePoint" />
            <mxPoint x="447.5" y="-520" as="targetPoint" />
            <Array as="points">
              <mxPoint x="447.5" y="-470" />
            </Array>
          </mxGeometry>
        </mxCell>
        <mxCell id="MX0nCwJX5Nr02eYSxFdz-15" value="" style="shape=trapezoid;perimeter=trapezoidPerimeter;whiteSpace=wrap;html=1;fixedSize=1;rotation=90;fillColor=#dae8fc;strokeColor=#6c8ebf;" parent="1" vertex="1">
          <mxGeometry x="636" y="-366" width="138" height="30" as="geometry" />
        </mxCell>
        <mxCell id="MX0nCwJX5Nr02eYSxFdz-17" value="" style="endArrow=classic;html=1;rounded=0;entryX=1;entryY=0.5;entryDx=0;entryDy=0;" parent="1" target="MX0nCwJX5Nr02eYSxFdz-15" edge="1">
          <mxGeometry width="50" height="50" relative="1" as="geometry">
            <mxPoint x="705" y="-260" as="sourcePoint" />
            <mxPoint x="715.25" y="-275" as="targetPoint" />
            <Array as="points" />
          </mxGeometry>
        </mxCell>
        <mxCell id="MX0nCwJX5Nr02eYSxFdz-18" value="" style="endArrow=classic;html=1;rounded=0;entryX=0.25;entryY=1;entryDx=0;entryDy=0;" parent="1" target="MX0nCwJX5Nr02eYSxFdz-15" edge="1">
          <mxGeometry width="50" height="50" relative="1" as="geometry">
            <mxPoint x="480" y="-385" as="sourcePoint" />
            <mxPoint x="548" y="-359" as="targetPoint" />
          </mxGeometry>
        </mxCell>
        <mxCell id="MX0nCwJX5Nr02eYSxFdz-22" value="" style="ellipse;whiteSpace=wrap;html=1;aspect=fixed;perimeterSpacing=0;fillColor=#000000;" parent="1" vertex="1">
          <mxGeometry x="495" y="4" width="10" height="10" as="geometry" />
        </mxCell>
        <mxCell id="MX0nCwJX5Nr02eYSxFdz-25" value="" style="ellipse;whiteSpace=wrap;html=1;aspect=fixed;perimeterSpacing=0;fillColor=#000000;" parent="1" vertex="1">
          <mxGeometry x="521" y="15" width="10" height="10" as="geometry" />
        </mxCell>
        <mxCell id="MX0nCwJX5Nr02eYSxFdz-26" value="" style="ellipse;whiteSpace=wrap;html=1;aspect=fixed;perimeterSpacing=0;fillColor=#000000;" parent="1" vertex="1">
          <mxGeometry x="550" y="25" width="10" height="10" as="geometry" />
        </mxCell>
        <mxCell id="MABgukyNh4F1C0C2bxm2-1" value="" style="ellipse;whiteSpace=wrap;html=1;aspect=fixed;perimeterSpacing=0;fillColor=#000000;" parent="1" vertex="1">
          <mxGeometry x="2795" y="-255" width="10" height="10" as="geometry" />
        </mxCell>
        <mxCell id="MABgukyNh4F1C0C2bxm2-2" value="" style="ellipse;whiteSpace=wrap;html=1;aspect=fixed;perimeterSpacing=0;fillColor=#000000;" parent="1" vertex="1">
          <mxGeometry x="3955" y="-687" width="10" height="10" as="geometry" />
        </mxCell>
        <mxCell id="MABgukyNh4F1C0C2bxm2-4" value="" style="endArrow=classic;html=1;rounded=0;entryX=0.25;entryY=1;entryDx=0;entryDy=0;" parent="1" edge="1">
          <mxGeometry width="50" height="50" relative="1" as="geometry">
            <mxPoint x="-110" y="-240" as="sourcePoint" />
            <mxPoint x="889.375" y="-237.5574999999999" as="targetPoint" />
          </mxGeometry>
        </mxCell>
        <mxCell id="MX0nCwJX5Nr02eYSxFdz-16" value="&lt;font style=&quot;font-size: 15px;&quot; color=&quot;#3333ff&quot;&gt;&lt;font style=&quot;forced-color-adjust: none; font-family: Helvetica; font-style: normal; font-variant-ligatures: normal; font-variant-caps: normal; font-weight: 400; letter-spacing: normal; orphans: 2; text-align: left; text-indent: 0px; text-transform: none; widows: 2; word-spacing: 0px; -webkit-text-stroke-width: 0px; white-space: normal; background-color: rgb(251, 251, 251); text-decoration-thickness: initial; text-decoration-style: initial; text-decoration-color: initial; font-size: 15px;&quot;&gt;rs2_mux_sel_D&lt;/font&gt;&lt;br class=&quot;Apple-interchange-newline&quot;&gt;&lt;/font&gt;&lt;div style=&quot;font-size: 15px;&quot;&gt;&lt;font style=&quot;forced-color-adjust: none; color: rgb(0, 0, 0); font-family: Helvetica; font-style: normal; font-variant-ligatures: normal; font-variant-caps: normal; font-weight: 400; letter-spacing: normal; orphans: 2; text-align: left; text-indent: 0px; text-transform: none; widows: 2; word-spacing: 0px; -webkit-text-stroke-width: 0px; white-space: normal; background-color: rgb(251, 251, 251); text-decoration-thickness: initial; text-decoration-style: initial; text-decoration-color: initial; font-size: 15px;&quot;&gt;&lt;br&gt;&lt;/font&gt;&lt;/div&gt;" style="text;whiteSpace=wrap;html=1;" parent="1" vertex="1">
          <mxGeometry x="650" y="-268" width="124" height="26" as="geometry" />
        </mxCell>
        <mxCell id="Ue21A1zpUpgJSjjASwve-3" value="" style="group" parent="1" vertex="1" connectable="0">
          <mxGeometry x="1535" y="-1759.81" width="170" height="400" as="geometry" />
        </mxCell>
        <mxCell id="oXpKcVIRyjbRH13NVvt_-4" value="&lt;font style=&quot;font-size: 48px;&quot;&gt;alu&lt;/font&gt;" style="text;whiteSpace=wrap;html=1;" parent="Ue21A1zpUpgJSjjASwve-3" vertex="1">
          <mxGeometry x="50" y="160" width="120" height="60" as="geometry" />
        </mxCell>
        <mxCell id="Y0skXffIHWInu-s1_A8m-3" value="" style="endArrow=none;html=1;rounded=0;" parent="Ue21A1zpUpgJSjjASwve-3" edge="1">
          <mxGeometry width="50" height="50" relative="1" as="geometry">
            <mxPoint y="160" as="sourcePoint" />
            <mxPoint as="targetPoint" />
          </mxGeometry>
        </mxCell>
        <mxCell id="Y0skXffIHWInu-s1_A8m-4" value="" style="endArrow=none;html=1;rounded=0;" parent="Ue21A1zpUpgJSjjASwve-3" edge="1">
          <mxGeometry width="50" height="50" relative="1" as="geometry">
            <mxPoint as="sourcePoint" />
            <mxPoint x="160" y="120" as="targetPoint" />
          </mxGeometry>
        </mxCell>
        <mxCell id="Y0skXffIHWInu-s1_A8m-5" value="" style="endArrow=none;html=1;rounded=0;" parent="Ue21A1zpUpgJSjjASwve-3" edge="1">
          <mxGeometry width="50" height="50" relative="1" as="geometry">
            <mxPoint x="160" y="280" as="sourcePoint" />
            <mxPoint x="160" y="120" as="targetPoint" />
          </mxGeometry>
        </mxCell>
        <mxCell id="Y0skXffIHWInu-s1_A8m-9" value="" style="endArrow=none;html=1;rounded=0;" parent="Ue21A1zpUpgJSjjASwve-3" edge="1">
          <mxGeometry width="50" height="50" relative="1" as="geometry">
            <mxPoint y="159" as="sourcePoint" />
            <mxPoint x="40" y="199" as="targetPoint" />
          </mxGeometry>
        </mxCell>
        <mxCell id="Y0skXffIHWInu-s1_A8m-10" value="" style="endArrow=none;html=1;rounded=0;" parent="Ue21A1zpUpgJSjjASwve-3" edge="1">
          <mxGeometry width="50" height="50" relative="1" as="geometry">
            <mxPoint y="239" as="sourcePoint" />
            <mxPoint x="40" y="199" as="targetPoint" />
          </mxGeometry>
        </mxCell>
        <mxCell id="Y0skXffIHWInu-s1_A8m-12" value="" style="endArrow=none;html=1;rounded=0;" parent="Ue21A1zpUpgJSjjASwve-3" edge="1">
          <mxGeometry width="50" height="50" relative="1" as="geometry">
            <mxPoint y="400" as="sourcePoint" />
            <mxPoint x="160" y="280" as="targetPoint" />
          </mxGeometry>
        </mxCell>
        <mxCell id="Ue21A1zpUpgJSjjASwve-2" value="" style="endArrow=none;html=1;rounded=0;" parent="Ue21A1zpUpgJSjjASwve-3" edge="1">
          <mxGeometry width="50" height="50" relative="1" as="geometry">
            <mxPoint x="1" y="399" as="sourcePoint" />
            <mxPoint x="1" y="239" as="targetPoint" />
          </mxGeometry>
        </mxCell>
        <mxCell id="rHNaq6syW2K50itlWnIk-132" value="" style="endArrow=classic;html=1;rounded=0;" edge="1" parent="Ue21A1zpUpgJSjjASwve-3">
          <mxGeometry width="50" height="50" relative="1" as="geometry">
            <mxPoint x="-325" y="89.51999999999975" as="sourcePoint" />
            <mxPoint x="5" y="79.80999999999995" as="targetPoint" />
          </mxGeometry>
        </mxCell>
        <mxCell id="rHNaq6syW2K50itlWnIk-133" value="" style="endArrow=classic;html=1;rounded=0;" edge="1" parent="Ue21A1zpUpgJSjjASwve-3">
          <mxGeometry width="50" height="50" relative="1" as="geometry">
            <mxPoint x="-335" y="379.51999999999975" as="sourcePoint" />
            <mxPoint x="-5" y="319.80999999999995" as="targetPoint" />
          </mxGeometry>
        </mxCell>
        <mxCell id="Ue21A1zpUpgJSjjASwve-4" value="" style="endArrow=classic;html=1;rounded=0;" parent="1" edge="1">
          <mxGeometry width="50" height="50" relative="1" as="geometry">
            <mxPoint x="1400" y="-120.5" as="sourcePoint" />
            <mxPoint x="1510" y="-120.5" as="targetPoint" />
          </mxGeometry>
        </mxCell>
        <mxCell id="Ue21A1zpUpgJSjjASwve-7" value="" style="endArrow=none;html=1;rounded=0;" parent="1" edge="1">
          <mxGeometry width="50" height="50" relative="1" as="geometry">
            <mxPoint x="1440" y="-410" as="sourcePoint" />
            <mxPoint x="1439.5" y="-640" as="targetPoint" />
          </mxGeometry>
        </mxCell>
        <mxCell id="Ue21A1zpUpgJSjjASwve-8" value="" style="endArrow=none;html=1;rounded=0;entryX=0.3;entryY=0.4;entryDx=0;entryDy=0;entryPerimeter=0;" parent="1" edge="1">
          <mxGeometry width="50" height="50" relative="1" as="geometry">
            <mxPoint x="1669" y="-280" as="sourcePoint" />
            <mxPoint x="1799" y="-280" as="targetPoint" />
          </mxGeometry>
        </mxCell>
        <mxCell id="Ue21A1zpUpgJSjjASwve-10" value="" style="group" parent="1" vertex="1" connectable="0">
          <mxGeometry x="1735" y="70" width="440" height="180" as="geometry" />
        </mxCell>
        <mxCell id="idpTYqr38m1hENi_6hJd-21" value="" style="rounded=0;whiteSpace=wrap;html=1;fillColor=#dae8fc;strokeColor=#6c8ebf;" parent="Ue21A1zpUpgJSjjASwve-10" vertex="1">
          <mxGeometry width="260" height="180" as="geometry" />
        </mxCell>
        <mxCell id="oXpKcVIRyjbRH13NVvt_-25" value="&lt;div&gt;&lt;font style=&quot;font-size: 20px;&quot;&gt;addr&lt;/font&gt;&lt;/div&gt;" style="text;whiteSpace=wrap;html=1;" parent="Ue21A1zpUpgJSjjASwve-10" vertex="1">
          <mxGeometry x="20" y="20" width="250" height="60" as="geometry" />
        </mxCell>
        <mxCell id="oXpKcVIRyjbRH13NVvt_-26" value="&lt;div style=&quot;font-size: 20px;&quot;&gt;wdata&lt;/div&gt;" style="text;whiteSpace=wrap;html=1;" parent="Ue21A1zpUpgJSjjASwve-10" vertex="1">
          <mxGeometry x="20" y="80" width="80" height="40" as="geometry" />
        </mxCell>
        <mxCell id="oXpKcVIRyjbRH13NVvt_-27" value="&lt;div&gt;&lt;span style=&quot;font-size: 30px;&quot;&gt;rdata&lt;/span&gt;&lt;/div&gt;" style="text;whiteSpace=wrap;html=1;" parent="Ue21A1zpUpgJSjjASwve-10" vertex="1">
          <mxGeometry x="175" y="24" width="75" height="40" as="geometry" />
        </mxCell>
        <mxCell id="oXpKcVIRyjbRH13NVvt_-28" value="&lt;div&gt;&lt;font style=&quot;font-size: 32px;&quot;&gt;dmem&lt;/font&gt;&lt;/div&gt;" style="text;whiteSpace=wrap;html=1;" parent="Ue21A1zpUpgJSjjASwve-10" vertex="1">
          <mxGeometry x="160" y="110" width="90" height="50" as="geometry" />
        </mxCell>
        <mxCell id="oXpKcVIRyjbRH13NVvt_-30" value="" style="triangle;whiteSpace=wrap;html=1;rotation=-90;" parent="Ue21A1zpUpgJSjjASwve-10" vertex="1">
          <mxGeometry x="111" y="140" width="40" height="40" as="geometry" />
        </mxCell>
        <mxCell id="Ue21A1zpUpgJSjjASwve-16" value="" style="endArrow=classic;html=1;rounded=0;" parent="Ue21A1zpUpgJSjjASwve-10" edge="1">
          <mxGeometry width="50" height="50" relative="1" as="geometry">
            <mxPoint x="-35" y="40" as="sourcePoint" />
            <mxPoint x="5" y="40" as="targetPoint" />
          </mxGeometry>
        </mxCell>
        <mxCell id="Ue21A1zpUpgJSjjASwve-17" value="" style="endArrow=none;html=1;rounded=0;" parent="Ue21A1zpUpgJSjjASwve-10" edge="1">
          <mxGeometry width="50" height="50" relative="1" as="geometry">
            <mxPoint x="-81" y="290" as="sourcePoint" />
            <mxPoint x="-81" y="170" as="targetPoint" />
          </mxGeometry>
        </mxCell>
        <mxCell id="Ue21A1zpUpgJSjjASwve-18" value="" style="endArrow=classic;html=1;rounded=0;entryX=0;entryY=0.944;entryDx=0;entryDy=0;entryPerimeter=0;" parent="Ue21A1zpUpgJSjjASwve-10" target="idpTYqr38m1hENi_6hJd-21" edge="1">
          <mxGeometry width="50" height="50" relative="1" as="geometry">
            <mxPoint x="-81" y="170" as="sourcePoint" />
            <mxPoint x="-5" y="170" as="targetPoint" />
          </mxGeometry>
        </mxCell>
        <mxCell id="Ue21A1zpUpgJSjjASwve-11" value="" style="group" parent="1" vertex="1" connectable="0">
          <mxGeometry x="1810" y="-350" width="250" height="210" as="geometry" />
        </mxCell>
        <mxCell id="idpTYqr38m1hENi_6hJd-20" value="" style="rounded=0;whiteSpace=wrap;html=1;rotation=90;fillColor=#dae8fc;strokeColor=#6c8ebf;" parent="Ue21A1zpUpgJSjjASwve-11" vertex="1">
          <mxGeometry x="-10" y="50" width="140" height="40" as="geometry" />
        </mxCell>
        <mxCell id="oXpKcVIRyjbRH13NVvt_-19" value="&lt;div&gt;&lt;span style=&quot;font-size: 30px;&quot;&gt;aluA_out_X1&lt;/span&gt;&lt;/div&gt;" style="text;whiteSpace=wrap;html=1;" parent="Ue21A1zpUpgJSjjASwve-11" vertex="1">
          <mxGeometry y="150" width="250" height="60" as="geometry" />
        </mxCell>
        <mxCell id="oXpKcVIRyjbRH13NVvt_-29" value="" style="triangle;whiteSpace=wrap;html=1;rotation=-90;" parent="Ue21A1zpUpgJSjjASwve-11" vertex="1">
          <mxGeometry x="40" y="98" width="40" height="40" as="geometry" />
        </mxCell>
        <mxCell id="Ue21A1zpUpgJSjjASwve-12" value="" style="endArrow=classic;html=1;rounded=0;" parent="Ue21A1zpUpgJSjjASwve-11" edge="1">
          <mxGeometry width="50" height="50" relative="1" as="geometry">
            <mxPoint x="-20" y="70" as="sourcePoint" />
            <mxPoint x="40" y="70" as="targetPoint" />
          </mxGeometry>
        </mxCell>
        <mxCell id="Ue21A1zpUpgJSjjASwve-29" value="" style="endArrow=classic;html=1;rounded=0;entryX=0.313;entryY=0.983;entryDx=0;entryDy=0;entryPerimeter=0;" parent="Ue21A1zpUpgJSjjASwve-11" target="idpTYqr38m1hENi_6hJd-25" edge="1">
          <mxGeometry width="50" height="50" relative="1" as="geometry">
            <mxPoint x="80" y="69.5" as="sourcePoint" />
            <mxPoint x="208" y="70" as="targetPoint" />
          </mxGeometry>
        </mxCell>
        <mxCell id="oXpKcVIRyjbRH13NVvt_-95" value="" style="endArrow=none;dashed=1;html=1;strokeWidth=5;rounded=0;" parent="1" edge="1">
          <mxGeometry width="50" height="50" relative="1" as="geometry">
            <mxPoint x="1861.75" y="690" as="sourcePoint" />
            <mxPoint x="1878.25" y="-1390" as="targetPoint" />
          </mxGeometry>
        </mxCell>
        <mxCell id="Ue21A1zpUpgJSjjASwve-13" value="" style="endArrow=none;html=1;rounded=0;" parent="1" edge="1">
          <mxGeometry width="50" height="50" relative="1" as="geometry">
            <mxPoint x="1700" y="111" as="sourcePoint" />
            <mxPoint x="1700" y="-279" as="targetPoint" />
          </mxGeometry>
        </mxCell>
        <mxCell id="VG8MHKJ1vHQQKtuOWax9-11" value="" style="shape=waypoint;sketch=0;fillStyle=solid;size=6;pointerEvents=1;points=[];fillColor=none;resizable=0;rotatable=0;perimeter=centerPerimeter;snapToPoint=1;" parent="1" vertex="1">
          <mxGeometry x="1690" y="-290" width="20" height="20" as="geometry" />
        </mxCell>
        <mxCell id="oXpKcVIRyjbRH13NVvt_-35" value="" style="endArrow=classic;html=1;rounded=0;" parent="1" edge="1">
          <mxGeometry width="50" height="50" relative="1" as="geometry">
            <mxPoint x="1560" y="170" as="sourcePoint" />
            <mxPoint x="1739" y="170" as="targetPoint" />
          </mxGeometry>
        </mxCell>
        <mxCell id="Ue21A1zpUpgJSjjASwve-19" value="" style="group" parent="1" vertex="1" connectable="0">
          <mxGeometry x="2140" y="300" width="40" height="120" as="geometry" />
        </mxCell>
        <mxCell id="idpTYqr38m1hENi_6hJd-22" value="" style="rounded=0;whiteSpace=wrap;html=1;rotation=90;fillColor=#dae8fc;strokeColor=#6c8ebf;" parent="Ue21A1zpUpgJSjjASwve-19" vertex="1">
          <mxGeometry x="-40" y="40" width="120" height="40" as="geometry" />
        </mxCell>
        <mxCell id="oXpKcVIRyjbRH13NVvt_-32" value="" style="triangle;whiteSpace=wrap;html=1;rotation=-90;" parent="Ue21A1zpUpgJSjjASwve-19" vertex="1">
          <mxGeometry y="80" width="40" height="40" as="geometry" />
        </mxCell>
        <mxCell id="Ue21A1zpUpgJSjjASwve-27" value="" style="endArrow=none;html=1;rounded=0;" parent="1" edge="1">
          <mxGeometry width="50" height="50" relative="1" as="geometry">
            <mxPoint x="2521" y="99" as="sourcePoint" />
            <mxPoint x="2521" y="-200" as="targetPoint" />
          </mxGeometry>
        </mxCell>
        <mxCell id="Ue21A1zpUpgJSjjASwve-28" value="" style="endArrow=classic;html=1;rounded=0;" parent="1" edge="1">
          <mxGeometry width="50" height="50" relative="1" as="geometry">
            <mxPoint x="2520" y="-200" as="sourcePoint" />
            <mxPoint x="2640" y="-200" as="targetPoint" />
          </mxGeometry>
        </mxCell>
        <mxCell id="idpTYqr38m1hENi_6hJd-25" value="" style="shape=trapezoid;perimeter=trapezoidPerimeter;whiteSpace=wrap;html=1;fixedSize=1;rotation=90;size=50;fillColor=#dae8fc;strokeColor=#6c8ebf;" parent="1" vertex="1">
          <mxGeometry x="2592" y="-280" width="160" height="60" as="geometry" />
        </mxCell>
        <mxCell id="oXpKcVIRyjbRH13NVvt_-82" value="" style="endArrow=classic;html=1;rounded=0;" parent="1" edge="1">
          <mxGeometry width="50" height="50" relative="1" as="geometry">
            <mxPoint x="2680" y="-122.23000000000002" as="sourcePoint" />
            <mxPoint x="2680" y="-200" as="targetPoint" />
          </mxGeometry>
        </mxCell>
        <mxCell id="oXpKcVIRyjbRH13NVvt_-83" value="&lt;div&gt;&lt;span style=&quot;font-size: 30px;&quot;&gt;&lt;font color=&quot;#3333ff&quot;&gt;wb_mux_sel_M&lt;/font&gt;&lt;/span&gt;&lt;/div&gt;" style="text;whiteSpace=wrap;html=1;" parent="1" vertex="1">
          <mxGeometry x="2606" y="-120" width="250" height="60" as="geometry" />
        </mxCell>
        <mxCell id="Ue21A1zpUpgJSjjASwve-31" value="" style="group" parent="1" vertex="1" connectable="0">
          <mxGeometry x="2460" y="99" width="130" height="41" as="geometry" />
        </mxCell>
        <mxCell id="idpTYqr38m1hENi_6hJd-24" value="" style="rounded=0;whiteSpace=wrap;html=1;fillColor=#dae8fc;strokeColor=#6c8ebf;container=0;" parent="Ue21A1zpUpgJSjjASwve-31" vertex="1">
          <mxGeometry width="130" height="41" as="geometry" />
        </mxCell>
        <mxCell id="oXpKcVIRyjbRH13NVvt_-20" value="&lt;div&gt;&lt;font style=&quot;font-size: 20px;&quot;&gt;subword&lt;/font&gt;&lt;/div&gt;&lt;div&gt;&lt;span style=&quot;font-size: 30px;&quot;&gt;&lt;br&gt;&lt;/span&gt;&lt;/div&gt;" style="text;whiteSpace=wrap;html=1;container=0;" parent="Ue21A1zpUpgJSjjASwve-31" vertex="1">
          <mxGeometry x="29.545454545454504" y="6.043333333333322" width="70.90909090909089" height="23.916666666666668" as="geometry" />
        </mxCell>
        <mxCell id="Ue21A1zpUpgJSjjASwve-33" value="" style="group" parent="1" vertex="1" connectable="0">
          <mxGeometry x="2830" y="-320" width="250" height="210" as="geometry" />
        </mxCell>
        <mxCell id="Ue21A1zpUpgJSjjASwve-34" value="" style="rounded=0;whiteSpace=wrap;html=1;rotation=90;fillColor=#dae8fc;strokeColor=#6c8ebf;" parent="Ue21A1zpUpgJSjjASwve-33" vertex="1">
          <mxGeometry x="-10" y="50" width="140" height="40" as="geometry" />
        </mxCell>
        <mxCell id="Ue21A1zpUpgJSjjASwve-35" value="&lt;span style=&quot;font-size: 30px;&quot;&gt;wbA_mux_out_X2&lt;/span&gt;" style="text;whiteSpace=wrap;html=1;" parent="Ue21A1zpUpgJSjjASwve-33" vertex="1">
          <mxGeometry y="150" width="250" height="60" as="geometry" />
        </mxCell>
        <mxCell id="Ue21A1zpUpgJSjjASwve-36" value="" style="triangle;whiteSpace=wrap;html=1;rotation=-90;" parent="Ue21A1zpUpgJSjjASwve-33" vertex="1">
          <mxGeometry x="40" y="98" width="40" height="40" as="geometry" />
        </mxCell>
        <mxCell id="Ue21A1zpUpgJSjjASwve-37" value="" style="endArrow=classic;html=1;rounded=0;exitX=0.5;exitY=0;exitDx=0;exitDy=0;" parent="Ue21A1zpUpgJSjjASwve-33" source="idpTYqr38m1hENi_6hJd-25" edge="1">
          <mxGeometry width="50" height="50" relative="1" as="geometry">
            <mxPoint x="-20" y="70" as="sourcePoint" />
            <mxPoint x="40" y="70" as="targetPoint" />
          </mxGeometry>
        </mxCell>
        <mxCell id="Ue21A1zpUpgJSjjASwve-38" value="" style="endArrow=classic;html=1;rounded=0;entryX=0.5;entryY=1;entryDx=0;entryDy=0;" parent="Ue21A1zpUpgJSjjASwve-33" target="Ue21A1zpUpgJSjjASwve-40" edge="1">
          <mxGeometry width="50" height="50" relative="1" as="geometry">
            <mxPoint x="80" y="69.5" as="sourcePoint" />
            <mxPoint x="208" y="70" as="targetPoint" />
          </mxGeometry>
        </mxCell>
        <mxCell id="Ue21A1zpUpgJSjjASwve-39" value="" style="endArrow=none;dashed=1;html=1;strokeWidth=5;rounded=0;" parent="1" edge="1">
          <mxGeometry width="50" height="50" relative="1" as="geometry">
            <mxPoint x="2881.75" y="720" as="sourcePoint" />
            <mxPoint x="2898" y="-1830" as="targetPoint" />
          </mxGeometry>
        </mxCell>
        <mxCell id="Ue21A1zpUpgJSjjASwve-40" value="" style="rounded=0;whiteSpace=wrap;html=1;rotation=90;fillColor=#dae8fc;strokeColor=#6c8ebf;" parent="1" vertex="1">
          <mxGeometry x="3390" y="-269" width="140" height="40" as="geometry" />
        </mxCell>
        <mxCell id="Ue21A1zpUpgJSjjASwve-41" value="" style="triangle;whiteSpace=wrap;html=1;rotation=-90;" parent="1" vertex="1">
          <mxGeometry x="3440" y="-217" width="40" height="40" as="geometry" />
        </mxCell>
        <mxCell id="Ue21A1zpUpgJSjjASwve-42" value="" style="endArrow=classic;html=1;rounded=0;entryX=0.75;entryY=1;entryDx=0;entryDy=0;" parent="1" target="Ue21A1zpUpgJSjjASwve-115" edge="1">
          <mxGeometry width="50" height="50" relative="1" as="geometry">
            <mxPoint x="3480" y="-245.5" as="sourcePoint" />
            <mxPoint x="3608" y="-245" as="targetPoint" />
            <Array as="points">
              <mxPoint x="3720" y="-245" />
              <mxPoint x="3720" y="-630" />
            </Array>
          </mxGeometry>
        </mxCell>
        <mxCell id="Ue21A1zpUpgJSjjASwve-43" value="" style="endArrow=none;dashed=1;html=1;strokeWidth=5;rounded=0;" parent="1" edge="1">
          <mxGeometry width="50" height="50" relative="1" as="geometry">
            <mxPoint x="3451.75" y="726" as="sourcePoint" />
            <mxPoint x="3468" y="-1800" as="targetPoint" />
          </mxGeometry>
        </mxCell>
        <mxCell id="Ue21A1zpUpgJSjjASwve-44" value="&lt;span style=&quot;font-size: 30px;&quot;&gt;wbA_mux_out_X3&lt;/span&gt;" style="text;whiteSpace=wrap;html=1;" parent="1" vertex="1">
          <mxGeometry x="3350" y="-167.87" width="250" height="60" as="geometry" />
        </mxCell>
        <mxCell id="Ue21A1zpUpgJSjjASwve-45" value="&lt;span style=&quot;color: rgb(0, 0, 0); font-family: Helvetica; font-size: 80px; font-style: normal; font-variant-ligatures: normal; font-variant-caps: normal; font-weight: 400; letter-spacing: normal; orphans: 2; text-align: center; text-indent: 0px; text-transform: none; widows: 2; word-spacing: 0px; -webkit-text-stroke-width: 0px; white-space: normal; background-color: rgb(251, 251, 251); text-decoration-thickness: initial; text-decoration-style: initial; text-decoration-color: initial; display: inline !important; float: none;&quot;&gt;X2&lt;/span&gt;" style="text;whiteSpace=wrap;html=1;" parent="1" vertex="1">
          <mxGeometry x="3120" y="520" width="110" height="100" as="geometry" />
        </mxCell>
        <mxCell id="Ue21A1zpUpgJSjjASwve-46" value="&lt;span style=&quot;color: rgb(0, 0, 0); font-family: Helvetica; font-size: 80px; font-style: normal; font-variant-ligatures: normal; font-variant-caps: normal; font-weight: 400; letter-spacing: normal; orphans: 2; text-align: center; text-indent: 0px; text-transform: none; widows: 2; word-spacing: 0px; -webkit-text-stroke-width: 0px; white-space: normal; background-color: rgb(251, 251, 251); text-decoration-thickness: initial; text-decoration-style: initial; text-decoration-color: initial; display: inline !important; float: none;&quot;&gt;X3&lt;/span&gt;" style="text;whiteSpace=wrap;html=1;" parent="1" vertex="1">
          <mxGeometry x="3700" y="525" width="110" height="100" as="geometry" />
        </mxCell>
        <mxCell id="Ue21A1zpUpgJSjjASwve-56" value="" style="group" parent="1" vertex="1" connectable="0">
          <mxGeometry x="1490" y="-950" width="440" height="290" as="geometry" />
        </mxCell>
        <mxCell id="oXpKcVIRyjbRH13NVvt_-49" value="" style="endArrow=classic;html=1;rounded=0;" parent="Ue21A1zpUpgJSjjASwve-56" edge="1">
          <mxGeometry width="50" height="50" relative="1" as="geometry">
            <mxPoint x="102" y="240" as="sourcePoint" />
            <mxPoint x="102" y="160" as="targetPoint" />
          </mxGeometry>
        </mxCell>
        <mxCell id="oXpKcVIRyjbRH13NVvt_-50" value="&lt;font style=&quot;font-size: 20px;&quot; color=&quot;#3333ff&quot;&gt;muldivreag_msg_fn_X&lt;/font&gt;&lt;div style=&quot;font-size: 20px;&quot;&gt;&lt;span style=&quot;&quot;&gt;&lt;br&gt;&lt;/span&gt;&lt;/div&gt;" style="text;whiteSpace=wrap;html=1;" parent="Ue21A1zpUpgJSjjASwve-56" vertex="1">
          <mxGeometry y="250" width="220" height="40" as="geometry" />
        </mxCell>
        <mxCell id="Ue21A1zpUpgJSjjASwve-58" value="" style="endArrow=classic;html=1;rounded=0;" parent="Ue21A1zpUpgJSjjASwve-56" edge="1">
          <mxGeometry width="50" height="50" relative="1" as="geometry">
            <mxPoint x="-46" y="30" as="sourcePoint" />
            <mxPoint x="24" y="30" as="targetPoint" />
          </mxGeometry>
        </mxCell>
        <mxCell id="oXpKcVIRyjbRH13NVvt_-44" value="&lt;font style=&quot;font-size: 20px;&quot; color=&quot;#3333ff&quot;&gt;muldiv_mux_sel_X&lt;/font&gt;&lt;div style=&quot;font-size: 20px;&quot;&gt;&lt;div&gt;&lt;span style=&quot;&quot;&gt;&lt;br&gt;&lt;/span&gt;&lt;/div&gt;&lt;/div&gt;" style="text;whiteSpace=wrap;html=1;" parent="Ue21A1zpUpgJSjjASwve-56" vertex="1">
          <mxGeometry x="190" y="204" width="250" height="60" as="geometry" />
        </mxCell>
        <mxCell id="idpTYqr38m1hENi_6hJd-17" value="" style="whiteSpace=wrap;html=1;aspect=fixed;fillColor=#dae8fc;strokeColor=#6c8ebf;" parent="Ue21A1zpUpgJSjjASwve-56" vertex="1">
          <mxGeometry x="24" width="160" height="160" as="geometry" />
        </mxCell>
        <mxCell id="oXpKcVIRyjbRH13NVvt_-17" value="&lt;span style=&quot;font-size: 30px;&quot;&gt;imuldiv&lt;/span&gt;&lt;div&gt;&lt;span style=&quot;font-size: 30px;&quot;&gt;&lt;br&gt;&lt;/span&gt;&lt;div&gt;&lt;span style=&quot;font-size: 30px;&quot;&gt;&lt;br&gt;&lt;/span&gt;&lt;/div&gt;&lt;/div&gt;" style="text;whiteSpace=wrap;html=1;" parent="Ue21A1zpUpgJSjjASwve-56" vertex="1">
          <mxGeometry x="54" y="60" width="250" height="60" as="geometry" />
        </mxCell>
        <mxCell id="oXpKcVIRyjbRH13NVvt_-18" value="&lt;font style=&quot;font-size: 15px;&quot;&gt;&amp;nbsp; &amp;nbsp; &amp;nbsp; md_mux&lt;/font&gt;&lt;div style=&quot;font-size: 15px;&quot;&gt;&lt;span style=&quot;&quot;&gt;&lt;br&gt;&lt;/span&gt;&lt;/div&gt;" style="text;whiteSpace=wrap;html=1;fillColor=#dae8fc;strokeColor=#6c8ebf;" parent="Ue21A1zpUpgJSjjASwve-56" vertex="1">
          <mxGeometry x="240" y="49.5" width="63" height="61" as="geometry" />
        </mxCell>
        <mxCell id="Ue21A1zpUpgJSjjASwve-65" value="" style="endArrow=classic;html=1;rounded=0;" parent="Ue21A1zpUpgJSjjASwve-56" edge="1">
          <mxGeometry width="50" height="50" relative="1" as="geometry">
            <mxPoint x="270" y="181" as="sourcePoint" />
            <mxPoint x="270" y="101" as="targetPoint" />
          </mxGeometry>
        </mxCell>
        <mxCell id="Ue21A1zpUpgJSjjASwve-66" value="" style="endArrow=classic;html=1;rounded=0;" parent="Ue21A1zpUpgJSjjASwve-56" edge="1">
          <mxGeometry width="50" height="50" relative="1" as="geometry">
            <mxPoint x="184" y="79.28999999999996" as="sourcePoint" />
            <mxPoint x="220" y="79" as="targetPoint" />
          </mxGeometry>
        </mxCell>
        <mxCell id="oXpKcVIRyjbRH13NVvt_-15" value="" style="endArrow=classic;html=1;rounded=0;" parent="1" edge="1">
          <mxGeometry width="50" height="50" relative="1" as="geometry">
            <mxPoint x="1400" y="-830" as="sourcePoint" />
            <mxPoint x="1520" y="-830" as="targetPoint" />
          </mxGeometry>
        </mxCell>
        <mxCell id="Ue21A1zpUpgJSjjASwve-60" value="" style="endArrow=none;html=1;rounded=0;" parent="1" source="VG8MHKJ1vHQQKtuOWax9-9" target="Ue21A1zpUpgJSjjASwve-59" edge="1">
          <mxGeometry width="50" height="50" relative="1" as="geometry">
            <mxPoint x="1440" y="-640" as="sourcePoint" />
            <mxPoint x="1440" y="-1080" as="targetPoint" />
          </mxGeometry>
        </mxCell>
        <mxCell id="Ue21A1zpUpgJSjjASwve-59" value="" style="ellipse;whiteSpace=wrap;html=1;aspect=fixed;perimeterSpacing=0;fillColor=#000000;" parent="1" vertex="1">
          <mxGeometry x="1435" y="-925" width="10" height="10" as="geometry" />
        </mxCell>
        <mxCell id="Ue21A1zpUpgJSjjASwve-62" value="" style="endArrow=classic;html=1;rounded=0;exitX=1;exitY=0;exitDx=0;exitDy=0;" parent="1" edge="1">
          <mxGeometry width="50" height="50" relative="1" as="geometry">
            <mxPoint x="1786.5355339059324" y="-284.5355339059324" as="sourcePoint" />
            <mxPoint x="1790" y="-450" as="targetPoint" />
          </mxGeometry>
        </mxCell>
        <mxCell id="Ue21A1zpUpgJSjjASwve-64" value="" style="ellipse;whiteSpace=wrap;html=1;aspect=fixed;perimeterSpacing=0;fillColor=#000000;" parent="1" vertex="1">
          <mxGeometry x="1781" y="-286" width="10" height="10" as="geometry" />
        </mxCell>
        <mxCell id="Ue21A1zpUpgJSjjASwve-75" value="" style="group" parent="1" vertex="1" connectable="0">
          <mxGeometry x="1812" y="-940" width="250" height="210" as="geometry" />
        </mxCell>
        <mxCell id="Ue21A1zpUpgJSjjASwve-76" value="" style="rounded=0;whiteSpace=wrap;html=1;rotation=90;fillColor=#dae8fc;strokeColor=#6c8ebf;" parent="Ue21A1zpUpgJSjjASwve-75" vertex="1">
          <mxGeometry x="-10" y="50" width="140" height="40" as="geometry" />
        </mxCell>
        <mxCell id="Ue21A1zpUpgJSjjASwve-77" value="&lt;div&gt;&lt;span style=&quot;font-size: 30px;&quot;&gt;reg_A1&lt;/span&gt;&lt;/div&gt;" style="text;whiteSpace=wrap;html=1;" parent="Ue21A1zpUpgJSjjASwve-75" vertex="1">
          <mxGeometry x="13" y="143" width="250" height="60" as="geometry" />
        </mxCell>
        <mxCell id="Ue21A1zpUpgJSjjASwve-78" value="" style="triangle;whiteSpace=wrap;html=1;rotation=-90;" parent="Ue21A1zpUpgJSjjASwve-75" vertex="1">
          <mxGeometry x="40" y="98" width="40" height="40" as="geometry" />
        </mxCell>
        <mxCell id="Ue21A1zpUpgJSjjASwve-79" value="" style="endArrow=classic;html=1;rounded=0;" parent="Ue21A1zpUpgJSjjASwve-75" edge="1">
          <mxGeometry width="50" height="50" relative="1" as="geometry">
            <mxPoint x="-20" y="70" as="sourcePoint" />
            <mxPoint x="40" y="70" as="targetPoint" />
          </mxGeometry>
        </mxCell>
        <mxCell id="Ue21A1zpUpgJSjjASwve-80" value="" style="endArrow=classic;html=1;rounded=0;entryX=0.5;entryY=1;entryDx=0;entryDy=0;" parent="Ue21A1zpUpgJSjjASwve-75" target="Ue21A1zpUpgJSjjASwve-90" edge="1">
          <mxGeometry width="50" height="50" relative="1" as="geometry">
            <mxPoint x="80" y="69.5" as="sourcePoint" />
            <mxPoint x="208" y="70" as="targetPoint" />
          </mxGeometry>
        </mxCell>
        <mxCell id="Ue21A1zpUpgJSjjASwve-89" value="" style="group" parent="1" vertex="1" connectable="0">
          <mxGeometry x="2830" y="-940" width="250" height="210" as="geometry" />
        </mxCell>
        <mxCell id="Ue21A1zpUpgJSjjASwve-90" value="" style="rounded=0;whiteSpace=wrap;html=1;rotation=90;fillColor=#dae8fc;strokeColor=#6c8ebf;" parent="Ue21A1zpUpgJSjjASwve-89" vertex="1">
          <mxGeometry x="-10" y="50" width="140" height="40" as="geometry" />
        </mxCell>
        <mxCell id="Ue21A1zpUpgJSjjASwve-91" value="&lt;div&gt;&lt;span style=&quot;font-size: 30px;&quot;&gt;reg_A2&lt;/span&gt;&lt;/div&gt;" style="text;whiteSpace=wrap;html=1;" parent="Ue21A1zpUpgJSjjASwve-89" vertex="1">
          <mxGeometry x="16" y="143" width="250" height="60" as="geometry" />
        </mxCell>
        <mxCell id="Ue21A1zpUpgJSjjASwve-92" value="" style="triangle;whiteSpace=wrap;html=1;rotation=-90;" parent="Ue21A1zpUpgJSjjASwve-89" vertex="1">
          <mxGeometry x="40" y="98" width="40" height="40" as="geometry" />
        </mxCell>
        <mxCell id="Ue21A1zpUpgJSjjASwve-94" value="" style="endArrow=classic;html=1;rounded=0;entryX=0.5;entryY=1;entryDx=0;entryDy=0;" parent="Ue21A1zpUpgJSjjASwve-89" target="Ue21A1zpUpgJSjjASwve-108" edge="1">
          <mxGeometry width="50" height="50" relative="1" as="geometry">
            <mxPoint x="80" y="69.5" as="sourcePoint" />
            <mxPoint x="208" y="70" as="targetPoint" />
          </mxGeometry>
        </mxCell>
        <mxCell id="Ue21A1zpUpgJSjjASwve-108" value="" style="rounded=0;whiteSpace=wrap;html=1;rotation=90;fillColor=#dae8fc;strokeColor=#6c8ebf;" parent="1" vertex="1">
          <mxGeometry x="3400" y="-890" width="140" height="40" as="geometry" />
        </mxCell>
        <mxCell id="Ue21A1zpUpgJSjjASwve-109" value="&lt;div&gt;&lt;span style=&quot;font-size: 30px;&quot;&gt;reg_A3&lt;/span&gt;&lt;/div&gt;" style="text;whiteSpace=wrap;html=1;" parent="1" vertex="1">
          <mxGeometry x="3423" y="-797" width="250" height="60" as="geometry" />
        </mxCell>
        <mxCell id="Ue21A1zpUpgJSjjASwve-110" value="" style="triangle;whiteSpace=wrap;html=1;rotation=-90;" parent="1" vertex="1">
          <mxGeometry x="3450" y="-842" width="40" height="40" as="geometry" />
        </mxCell>
        <mxCell id="Ue21A1zpUpgJSjjASwve-112" value="" style="endArrow=classic;html=1;rounded=0;entryX=0.25;entryY=1;entryDx=0;entryDy=0;" parent="1" target="Ue21A1zpUpgJSjjASwve-115" edge="1">
          <mxGeometry width="50" height="50" relative="1" as="geometry">
            <mxPoint x="3490" y="-870.5" as="sourcePoint" />
            <mxPoint x="3618" y="-870" as="targetPoint" />
            <Array as="points">
              <mxPoint x="3720" y="-871" />
              <mxPoint x="3720" y="-710" />
            </Array>
          </mxGeometry>
        </mxCell>
        <mxCell id="Ue21A1zpUpgJSjjASwve-115" value="" style="shape=trapezoid;perimeter=trapezoidPerimeter;whiteSpace=wrap;html=1;fixedSize=1;rotation=90;size=50;fillColor=#dae8fc;strokeColor=#6c8ebf;" parent="1" vertex="1">
          <mxGeometry x="3736" y="-700" width="160" height="60" as="geometry" />
        </mxCell>
        <mxCell id="Ue21A1zpUpgJSjjASwve-116" value="" style="endArrow=classic;html=1;rounded=0;" parent="1" edge="1">
          <mxGeometry width="50" height="50" relative="1" as="geometry">
            <mxPoint x="3824" y="-542.23" as="sourcePoint" />
            <mxPoint x="3824" y="-620" as="targetPoint" />
          </mxGeometry>
        </mxCell>
        <mxCell id="Ue21A1zpUpgJSjjASwve-117" value="&lt;font color=&quot;#3333ff&quot;&gt;&lt;span style=&quot;font-size: 30px;&quot;&gt;sel_muldiv&lt;/span&gt;&lt;/font&gt;" style="text;whiteSpace=wrap;html=1;" parent="1" vertex="1">
          <mxGeometry x="3750" y="-540" width="250" height="60" as="geometry" />
        </mxCell>
        <mxCell id="Ue21A1zpUpgJSjjASwve-118" value="" style="endArrow=classic;html=1;rounded=0;" parent="1" edge="1">
          <mxGeometry width="50" height="50" relative="1" as="geometry">
            <mxPoint x="360" y="-640" as="sourcePoint" />
            <mxPoint x="429.28999999999996" y="-640" as="targetPoint" />
            <Array as="points" />
          </mxGeometry>
        </mxCell>
        <mxCell id="Ue21A1zpUpgJSjjASwve-119" value="" style="ellipse;whiteSpace=wrap;html=1;aspect=fixed;perimeterSpacing=0;fillColor=#000000;" parent="1" vertex="1">
          <mxGeometry x="358" y="-643" width="10" height="10" as="geometry" />
        </mxCell>
        <mxCell id="Ue21A1zpUpgJSjjASwve-120" value="" style="ellipse;whiteSpace=wrap;html=1;aspect=fixed;perimeterSpacing=0;fillColor=#000000;" parent="1" vertex="1">
          <mxGeometry x="1695" y="5" width="10" height="10" as="geometry" />
        </mxCell>
        <mxCell id="Ue21A1zpUpgJSjjASwve-124" value="" style="ellipse;whiteSpace=wrap;html=1;aspect=fixed;perimeterSpacing=0;fillColor=#000000;" parent="1" vertex="1">
          <mxGeometry x="3205" y="-255" width="10" height="10" as="geometry" />
        </mxCell>
        <mxCell id="Ue21A1zpUpgJSjjASwve-125" value="" style="endArrow=classic;html=1;rounded=0;entryX=0.75;entryY=1;entryDx=0;entryDy=0;exitX=0.5;exitY=1;exitDx=0;exitDy=0;" parent="1" source="MABgukyNh4F1C0C2bxm2-2" target="MX0nCwJX5Nr02eYSxFdz-1" edge="1">
          <mxGeometry width="50" height="50" relative="1" as="geometry">
            <mxPoint x="3221" y="10.61" as="sourcePoint" />
            <mxPoint x="439" y="-569" as="targetPoint" />
            <Array as="points">
              <mxPoint x="3960" y="40" />
              <mxPoint x="400" y="40" />
              <mxPoint x="400" y="-554" />
            </Array>
          </mxGeometry>
        </mxCell>
        <mxCell id="Ue21A1zpUpgJSjjASwve-126" value="" style="endArrow=classic;html=1;rounded=0;exitX=0.5;exitY=0.5;exitDx=0;exitDy=0;exitPerimeter=0;entryX=0.874;entryY=0.999;entryDx=0;entryDy=0;entryPerimeter=0;" parent="1" source="Ue21A1zpUpgJSjjASwve-127" target="MX0nCwJX5Nr02eYSxFdz-1" edge="1">
          <mxGeometry width="50" height="50" relative="1" as="geometry">
            <mxPoint x="4270" y="-667" as="sourcePoint" />
            <mxPoint x="420" y="-531" as="targetPoint" />
            <Array as="points">
              <mxPoint x="4270" y="60" />
              <mxPoint x="410" y="50" />
              <mxPoint x="410" y="-531" />
            </Array>
          </mxGeometry>
        </mxCell>
        <mxCell id="Ue21A1zpUpgJSjjASwve-127" value="" style="ellipse;whiteSpace=wrap;html=1;aspect=fixed;perimeterSpacing=0;fillColor=#000000;" parent="1" vertex="1">
          <mxGeometry x="4265" y="-685" width="10" height="10" as="geometry" />
        </mxCell>
        <mxCell id="Ue21A1zpUpgJSjjASwve-128" value="" style="ellipse;whiteSpace=wrap;html=1;aspect=fixed;perimeterSpacing=0;fillColor=#000000;" parent="1" vertex="1">
          <mxGeometry x="475" y="-389" width="10" height="10" as="geometry" />
        </mxCell>
        <mxCell id="Ue21A1zpUpgJSjjASwve-129" value="" style="ellipse;whiteSpace=wrap;html=1;aspect=fixed;perimeterSpacing=0;fillColor=#000000;" parent="1" vertex="1">
          <mxGeometry x="587" y="34" width="10" height="10" as="geometry" />
        </mxCell>
        <mxCell id="Ue21A1zpUpgJSjjASwve-130" value="" style="ellipse;whiteSpace=wrap;html=1;aspect=fixed;perimeterSpacing=0;fillColor=#000000;" parent="1" vertex="1">
          <mxGeometry x="626" y="44" width="10" height="10" as="geometry" />
        </mxCell>
        <mxCell id="Ue21A1zpUpgJSjjASwve-133" value="" style="shape=trapezoid;perimeter=trapezoidPerimeter;whiteSpace=wrap;html=1;fixedSize=1;rotation=90;fillColor=#dae8fc;strokeColor=#6c8ebf;" parent="1" vertex="1">
          <mxGeometry x="757.94" y="-220.81" width="300" height="37.13" as="geometry" />
        </mxCell>
        <mxCell id="rHNaq6syW2K50itlWnIk-47" value="" style="group" vertex="1" connectable="0" parent="1">
          <mxGeometry x="-1145" y="-1650" width="515" height="280" as="geometry" />
        </mxCell>
        <mxCell id="rHNaq6syW2K50itlWnIk-48" style="edgeStyle=orthogonalEdgeStyle;rounded=0;orthogonalLoop=1;jettySize=auto;html=1;entryX=0.5;entryY=1;entryDx=0;entryDy=0;" edge="1" parent="rHNaq6syW2K50itlWnIk-47" source="rHNaq6syW2K50itlWnIk-49" target="rHNaq6syW2K50itlWnIk-52">
          <mxGeometry relative="1" as="geometry" />
        </mxCell>
        <mxCell id="rHNaq6syW2K50itlWnIk-49" value="" style="rounded=0;whiteSpace=wrap;html=1;fillColor=#dae8fc;strokeColor=#6c8ebf;" vertex="1" parent="rHNaq6syW2K50itlWnIk-47">
          <mxGeometry width="225" height="170" as="geometry" />
        </mxCell>
        <mxCell id="rHNaq6syW2K50itlWnIk-50" style="edgeStyle=orthogonalEdgeStyle;rounded=0;orthogonalLoop=1;jettySize=auto;html=1;exitX=0.5;exitY=0;exitDx=0;exitDy=0;entryX=0.75;entryY=1;entryDx=0;entryDy=0;" edge="1" parent="rHNaq6syW2K50itlWnIk-47" source="rHNaq6syW2K50itlWnIk-51" target="rHNaq6syW2K50itlWnIk-52">
          <mxGeometry relative="1" as="geometry" />
        </mxCell>
        <mxCell id="rHNaq6syW2K50itlWnIk-51" value="" style="rounded=0;whiteSpace=wrap;html=1;rotation=90;fillColor=#dae8fc;strokeColor=#6c8ebf;" vertex="1" parent="rHNaq6syW2K50itlWnIk-47">
          <mxGeometry x="305" y="190" width="120" height="60" as="geometry" />
        </mxCell>
        <mxCell id="rHNaq6syW2K50itlWnIk-52" value="" style="shape=trapezoid;perimeter=trapezoidPerimeter;whiteSpace=wrap;html=1;fixedSize=1;rotation=90;size=50;fillColor=#dae8fc;strokeColor=#6c8ebf;" vertex="1" parent="rHNaq6syW2K50itlWnIk-47">
          <mxGeometry x="405" y="55" width="160" height="60" as="geometry" />
        </mxCell>
        <mxCell id="rHNaq6syW2K50itlWnIk-53" value="&lt;div style=&quot;font-size: 23px;&quot;&gt;&lt;br&gt;&lt;/div&gt;" style="edgeLabel;html=1;align=center;verticalAlign=middle;resizable=0;points=[];fontSize=23;rotation=0;" connectable="0" vertex="1" parent="rHNaq6syW2K50itlWnIk-47">
          <mxGeometry x="65" y="100" as="geometry">
            <mxPoint x="-7" y="-56" as="offset" />
          </mxGeometry>
        </mxCell>
        <mxCell id="rHNaq6syW2K50itlWnIk-54" value="&lt;div style=&quot;forced-color-adjust: none; font-size: 23px;&quot;&gt;rdata&lt;/div&gt;" style="text;whiteSpace=wrap;html=1;" vertex="1" parent="rHNaq6syW2K50itlWnIk-47">
          <mxGeometry x="135" y="15" width="80" height="130" as="geometry" />
        </mxCell>
        <mxCell id="rHNaq6syW2K50itlWnIk-55" value="" style="triangle;whiteSpace=wrap;html=1;rotation=-90;" vertex="1" parent="rHNaq6syW2K50itlWnIk-47">
          <mxGeometry x="75" y="130" width="40" height="40" as="geometry" />
        </mxCell>
        <mxCell id="rHNaq6syW2K50itlWnIk-56" value="" style="triangle;whiteSpace=wrap;html=1;rotation=-90;" vertex="1" parent="rHNaq6syW2K50itlWnIk-47">
          <mxGeometry x="345" y="230" width="40" height="60" as="geometry" />
        </mxCell>
        <mxCell id="rHNaq6syW2K50itlWnIk-57" value="&lt;span style=&quot;color: rgb(0, 0, 0); font-family: Helvetica; font-size: 23px; font-style: normal; font-variant-ligatures: normal; font-variant-caps: normal; font-weight: 400; letter-spacing: normal; orphans: 2; text-align: left; text-indent: 0px; text-transform: none; widows: 2; word-spacing: 0px; -webkit-text-stroke-width: 0px; white-space: normal; background-color: rgb(251, 251, 251); text-decoration-thickness: initial; text-decoration-style: initial; text-decoration-color: initial; display: inline !important; float: none;&quot;&gt;add&lt;/span&gt;" style="text;whiteSpace=wrap;html=1;" vertex="1" parent="rHNaq6syW2K50itlWnIk-47">
          <mxGeometry y="15" width="90" height="50" as="geometry" />
        </mxCell>
        <mxCell id="rHNaq6syW2K50itlWnIk-58" value="" style="endArrow=none;html=1;rounded=0;" edge="1" parent="rHNaq6syW2K50itlWnIk-47">
          <mxGeometry width="50" height="50" relative="1" as="geometry">
            <mxPoint x="275" y="210" as="sourcePoint" />
            <mxPoint x="275" y="90" as="targetPoint" />
          </mxGeometry>
        </mxCell>
        <mxCell id="rHNaq6syW2K50itlWnIk-59" value="" style="endArrow=classic;html=1;rounded=0;entryX=0.403;entryY=0.983;entryDx=0;entryDy=0;entryPerimeter=0;" edge="1" parent="rHNaq6syW2K50itlWnIk-47" target="rHNaq6syW2K50itlWnIk-51">
          <mxGeometry width="50" height="50" relative="1" as="geometry">
            <mxPoint x="275" y="210" as="sourcePoint" />
            <mxPoint x="325" y="160" as="targetPoint" />
          </mxGeometry>
        </mxCell>
        <mxCell id="rHNaq6syW2K50itlWnIk-60" value="&lt;span style=&quot;color: rgb(0, 0, 0); font-family: Helvetica; font-size: 30px; font-style: normal; font-variant-ligatures: normal; font-variant-caps: normal; font-weight: 400; letter-spacing: normal; orphans: 2; text-align: center; text-indent: 0px; text-transform: none; widows: 2; word-spacing: 0px; -webkit-text-stroke-width: 0px; white-space: normal; background-color: rgb(251, 251, 251); text-decoration-thickness: initial; text-decoration-style: initial; text-decoration-color: initial; display: inline !important; float: none;&quot;&gt;imem&lt;/span&gt;" style="text;whiteSpace=wrap;html=1;" vertex="1" parent="rHNaq6syW2K50itlWnIk-47">
          <mxGeometry x="135" y="110" width="110" height="60" as="geometry" />
        </mxCell>
        <mxCell id="rHNaq6syW2K50itlWnIk-61" value="&lt;font style=&quot;font-size: 30px;&quot;&gt;regfile(read)&lt;/font&gt;" style="rounded=0;whiteSpace=wrap;html=1;fillColor=#dae8fc;strokeColor=#6c8ebf;" vertex="1" parent="1">
          <mxGeometry y="-1635" width="290" height="130" as="geometry" />
        </mxCell>
        <mxCell id="rHNaq6syW2K50itlWnIk-62" value="&lt;span style=&quot;color: rgb(0, 0, 0); font-family: Helvetica; font-size: 30px; font-style: normal; font-variant-ligatures: normal; font-variant-caps: normal; font-weight: 400; letter-spacing: normal; orphans: 2; text-align: center; text-indent: 0px; text-transform: none; widows: 2; word-spacing: 0px; -webkit-text-stroke-width: 0px; white-space: normal; background-color: rgb(251, 251, 251); text-decoration-thickness: initial; text-decoration-style: initial; text-decoration-color: initial; display: inline !important; float: none;&quot;&gt;ir_A&lt;/span&gt;" style="text;whiteSpace=wrap;html=1;rotation=0;" vertex="1" parent="1">
          <mxGeometry x="-310" y="-1505" width="110" height="60" as="geometry" />
        </mxCell>
        <mxCell id="rHNaq6syW2K50itlWnIk-63" value="" style="rounded=0;whiteSpace=wrap;html=1;rotation=90;fillColor=#dae8fc;strokeColor=#6c8ebf;" vertex="1" parent="1">
          <mxGeometry x="-345" y="-1590" width="120" height="40" as="geometry" />
        </mxCell>
        <mxCell id="rHNaq6syW2K50itlWnIk-64" value="" style="triangle;whiteSpace=wrap;html=1;rotation=-90;" vertex="1" parent="1">
          <mxGeometry x="-305" y="-1545" width="40" height="40" as="geometry" />
        </mxCell>
        <mxCell id="rHNaq6syW2K50itlWnIk-65" style="edgeStyle=orthogonalEdgeStyle;rounded=0;orthogonalLoop=1;jettySize=auto;html=1;exitX=0.5;exitY=0;exitDx=0;exitDy=0;" edge="1" parent="1">
          <mxGeometry relative="1" as="geometry">
            <mxPoint x="-635" y="-1560" as="sourcePoint" />
            <mxPoint x="-520" y="-630" as="targetPoint" />
            <Array as="points">
              <mxPoint x="-620" y="-1560" />
              <mxPoint x="-620" y="-640" />
              <mxPoint x="-520" y="-640" />
            </Array>
          </mxGeometry>
        </mxCell>
        <mxCell id="rHNaq6syW2K50itlWnIk-67" value="" style="shape=trapezoid;perimeter=trapezoidPerimeter;whiteSpace=wrap;html=1;fixedSize=1;rotation=90;fillColor=#dae8fc;strokeColor=#6c8ebf;" vertex="1" parent="1">
          <mxGeometry x="646" y="-1650" width="165" height="40" as="geometry" />
        </mxCell>
        <mxCell id="rHNaq6syW2K50itlWnIk-68" value="" style="shape=trapezoid;perimeter=trapezoidPerimeter;whiteSpace=wrap;html=1;fixedSize=1;rotation=90;fillColor=#dae8fc;strokeColor=#6c8ebf;" vertex="1" parent="1">
          <mxGeometry x="349" y="-1605" width="166" height="40" as="geometry" />
        </mxCell>
        <mxCell id="rHNaq6syW2K50itlWnIk-69" value="" style="shape=trapezoid;perimeter=trapezoidPerimeter;whiteSpace=wrap;html=1;fixedSize=1;rotation=90;fillColor=#dae8fc;strokeColor=#6c8ebf;" vertex="1" parent="1">
          <mxGeometry x="544" y="-1505" width="138" height="30" as="geometry" />
        </mxCell>
        <mxCell id="rHNaq6syW2K50itlWnIk-70" value="" style="shape=trapezoid;perimeter=trapezoidPerimeter;whiteSpace=wrap;html=1;fixedSize=1;rotation=90;fillColor=#dae8fc;strokeColor=#6c8ebf;" vertex="1" parent="1">
          <mxGeometry x="665.94" y="-1359.81" width="300" height="37.13" as="geometry" />
        </mxCell>
        <mxCell id="rHNaq6syW2K50itlWnIk-78" value="" style="group" vertex="1" connectable="0" parent="1">
          <mxGeometry x="480" y="-400" width="213" height="690" as="geometry" />
        </mxCell>
        <mxCell id="VG8MHKJ1vHQQKtuOWax9-15" value="" style="endArrow=none;html=1;rounded=0;" parent="rHNaq6syW2K50itlWnIk-78" edge="1">
          <mxGeometry width="50" height="50" relative="1" as="geometry">
            <mxPoint y="690" as="sourcePoint" />
            <mxPoint as="targetPoint" />
          </mxGeometry>
        </mxCell>
        <mxCell id="MX0nCwJX5Nr02eYSxFdz-19" value="" style="endArrow=classic;html=1;rounded=0;entryX=0.371;entryY=0.9;entryDx=0;entryDy=0;entryPerimeter=0;exitX=0.5;exitY=1;exitDx=0;exitDy=0;" parent="rHNaq6syW2K50itlWnIk-78" source="MX0nCwJX5Nr02eYSxFdz-22" edge="1">
          <mxGeometry width="50" height="50" relative="1" as="geometry">
            <mxPoint x="20" y="400" as="sourcePoint" />
            <mxPoint x="213" y="32.19799999999941" as="targetPoint" />
            <Array as="points">
              <mxPoint x="20" y="31" />
            </Array>
          </mxGeometry>
        </mxCell>
        <mxCell id="MX0nCwJX5Nr02eYSxFdz-20" value="" style="endArrow=classic;html=1;rounded=0;entryX=0.5;entryY=1;entryDx=0;entryDy=0;exitX=0.5;exitY=1;exitDx=0;exitDy=0;" parent="rHNaq6syW2K50itlWnIk-78" source="MX0nCwJX5Nr02eYSxFdz-25" target="MX0nCwJX5Nr02eYSxFdz-15" edge="1">
          <mxGeometry width="50" height="50" relative="1" as="geometry">
            <mxPoint x="47" y="410" as="sourcePoint" />
            <mxPoint x="169.01000000000022" y="63.48999999999978" as="targetPoint" />
            <Array as="points">
              <mxPoint x="47" y="50" />
            </Array>
          </mxGeometry>
        </mxCell>
        <mxCell id="MX0nCwJX5Nr02eYSxFdz-21" value="" style="endArrow=classic;html=1;rounded=0;exitX=0.5;exitY=1;exitDx=0;exitDy=0;" parent="rHNaq6syW2K50itlWnIk-78" source="MX0nCwJX5Nr02eYSxFdz-26" edge="1">
          <mxGeometry width="50" height="50" relative="1" as="geometry">
            <mxPoint x="75" y="400" as="sourcePoint" />
            <mxPoint x="210" y="71" as="targetPoint" />
            <Array as="points">
              <mxPoint x="75" y="70" />
            </Array>
          </mxGeometry>
        </mxCell>
        <mxCell id="Ue21A1zpUpgJSjjASwve-131" value="" style="endArrow=classic;html=1;rounded=0;exitX=0.5;exitY=1;exitDx=0;exitDy=0;" parent="rHNaq6syW2K50itlWnIk-78" source="Ue21A1zpUpgJSjjASwve-129" edge="1">
          <mxGeometry width="50" height="50" relative="1" as="geometry">
            <mxPoint x="111" y="415" as="sourcePoint" />
            <mxPoint x="210" y="86" as="targetPoint" />
            <Array as="points">
              <mxPoint x="111" y="85" />
            </Array>
          </mxGeometry>
        </mxCell>
        <mxCell id="Ue21A1zpUpgJSjjASwve-132" value="" style="endArrow=classic;html=1;rounded=0;exitX=1;exitY=1;exitDx=0;exitDy=0;" parent="rHNaq6syW2K50itlWnIk-78" edge="1">
          <mxGeometry width="50" height="50" relative="1" as="geometry">
            <mxPoint x="151.53553390593243" y="450.5355339059324" as="sourcePoint" />
            <mxPoint x="207" y="103" as="targetPoint" />
            <Array as="points">
              <mxPoint x="148" y="102.13" />
            </Array>
          </mxGeometry>
        </mxCell>
        <mxCell id="rHNaq6syW2K50itlWnIk-192" value="" style="endArrow=classic;html=1;rounded=0;curved=0;strokeWidth=13;" edge="1" parent="rHNaq6syW2K50itlWnIk-78">
          <mxGeometry width="50" height="50" relative="1" as="geometry">
            <mxPoint x="530" y="-1320" as="sourcePoint" />
            <mxPoint x="220" y="110" as="targetPoint" />
            <Array as="points">
              <mxPoint x="80" y="140" />
            </Array>
          </mxGeometry>
        </mxCell>
        <mxCell id="rHNaq6syW2K50itlWnIk-86" value="" style="endArrow=classic;html=1;rounded=0;exitX=1;exitY=1;exitDx=0;exitDy=0;curved=0;strokeWidth=13;" edge="1" parent="1">
          <mxGeometry width="50" height="50" relative="1" as="geometry">
            <mxPoint x="568.0000000000009" y="-366.0000000000009" as="sourcePoint" />
            <mxPoint x="400" y="-1520" as="targetPoint" />
            <Array as="points">
              <mxPoint x="320" y="-1480" />
            </Array>
          </mxGeometry>
        </mxCell>
        <mxCell id="rHNaq6syW2K50itlWnIk-88" value="" style="endArrow=classic;html=1;rounded=0;" edge="1" parent="1">
          <mxGeometry width="50" height="50" relative="1" as="geometry">
            <mxPoint x="630" y="-1470" as="sourcePoint" />
            <mxPoint x="800" y="-1470" as="targetPoint" />
          </mxGeometry>
        </mxCell>
        <mxCell id="rHNaq6syW2K50itlWnIk-102" value="" style="endArrow=none;html=1;rounded=0;entryX=0;entryY=0.5;entryDx=0;entryDy=0;exitX=0.5;exitY=0;exitDx=0;exitDy=0;" edge="1" parent="1" source="rHNaq6syW2K50itlWnIk-63" target="rHNaq6syW2K50itlWnIk-61">
          <mxGeometry width="50" height="50" relative="1" as="geometry">
            <mxPoint x="-270" y="-1580" as="sourcePoint" />
            <mxPoint x="-125" y="-1565" as="targetPoint" />
          </mxGeometry>
        </mxCell>
        <mxCell id="rHNaq6syW2K50itlWnIk-89" value="" style="endArrow=none;html=1;rounded=0;" edge="1" parent="1" target="rHNaq6syW2K50itlWnIk-99">
          <mxGeometry width="50" height="50" relative="1" as="geometry">
            <mxPoint x="-190" y="-1230" as="sourcePoint" />
            <mxPoint x="-190" y="-1510" as="targetPoint" />
          </mxGeometry>
        </mxCell>
        <mxCell id="rHNaq6syW2K50itlWnIk-90" value="" style="endArrow=classic;html=1;rounded=0;entryX=0.16;entryY=0.984;entryDx=0;entryDy=0;entryPerimeter=0;" edge="1" parent="1">
          <mxGeometry width="50" height="50" relative="1" as="geometry">
            <mxPoint x="-190" y="-1390" as="sourcePoint" />
            <mxPoint x="810.0150000000003" y="-1388.8450000000003" as="targetPoint" />
          </mxGeometry>
        </mxCell>
        <mxCell id="rHNaq6syW2K50itlWnIk-91" value="" style="endArrow=classic;html=1;rounded=0;entryX=0.338;entryY=1.084;entryDx=0;entryDy=0;entryPerimeter=0;" edge="1" parent="1">
          <mxGeometry width="50" height="50" relative="1" as="geometry">
            <mxPoint x="-190" y="-1310" as="sourcePoint" />
            <mxPoint x="806.0150000000003" y="-1307.1875" as="targetPoint" />
          </mxGeometry>
        </mxCell>
        <mxCell id="rHNaq6syW2K50itlWnIk-92" value="" style="endArrow=classic;html=1;rounded=0;entryX=0.421;entryY=0.984;entryDx=0;entryDy=0;entryPerimeter=0;" edge="1" parent="1">
          <mxGeometry width="50" height="50" relative="1" as="geometry">
            <mxPoint x="-190" y="-1272.5" as="sourcePoint" />
            <mxPoint x="810.0150000000003" y="-1269.11125" as="targetPoint" />
          </mxGeometry>
        </mxCell>
        <mxCell id="rHNaq6syW2K50itlWnIk-93" value="" style="endArrow=classic;html=1;rounded=0;entryX=0.5;entryY=1;entryDx=0;entryDy=0;" edge="1" parent="1">
          <mxGeometry width="50" height="50" relative="1" as="geometry">
            <mxPoint x="-190" y="-1230" as="sourcePoint" />
            <mxPoint x="809.375" y="-1232.87" as="targetPoint" />
          </mxGeometry>
        </mxCell>
        <mxCell id="rHNaq6syW2K50itlWnIk-94" value="&lt;div style=&quot;text-align: center;&quot;&gt;&lt;span style=&quot;text-wrap: nowrap;&quot;&gt;&lt;font style=&quot;font-size: 25px;&quot;&gt;imm_i&lt;/font&gt;&lt;/span&gt;&lt;/div&gt;" style="text;whiteSpace=wrap;html=1;" vertex="1" parent="1">
          <mxGeometry x="10" y="-1430" width="70" height="50" as="geometry" />
        </mxCell>
        <mxCell id="rHNaq6syW2K50itlWnIk-95" value="&lt;span style=&quot;color: rgb(0, 0, 0); font-family: Helvetica; font-style: normal; font-variant-ligatures: normal; font-variant-caps: normal; font-weight: 400; letter-spacing: normal; orphans: 2; text-align: center; text-indent: 0px; text-transform: none; widows: 2; word-spacing: 0px; -webkit-text-stroke-width: 0px; white-space: nowrap; background-color: rgb(251, 251, 251); text-decoration-thickness: initial; text-decoration-style: initial; text-decoration-color: initial; float: none; display: inline !important;&quot;&gt;&lt;font style=&quot;font-size: 25px;&quot;&gt;imm_shamt&lt;/font&gt;&lt;/span&gt;" style="text;whiteSpace=wrap;html=1;" vertex="1" parent="1">
          <mxGeometry x="10" y="-1390" width="120" as="geometry" />
        </mxCell>
        <mxCell id="rHNaq6syW2K50itlWnIk-96" value="&lt;span style=&quot;color: rgb(0, 0, 0); font-family: Helvetica; font-style: normal; font-variant-ligatures: normal; font-variant-caps: normal; font-weight: 400; letter-spacing: normal; orphans: 2; text-align: center; text-indent: 0px; text-transform: none; widows: 2; word-spacing: 0px; -webkit-text-stroke-width: 0px; white-space: nowrap; background-color: rgb(251, 251, 251); text-decoration-thickness: initial; text-decoration-style: initial; text-decoration-color: initial; float: none; display: inline !important;&quot;&gt;&lt;font style=&quot;font-size: 25px;&quot;&gt;imm_u&lt;/font&gt;&lt;/span&gt;" style="text;whiteSpace=wrap;html=1;" vertex="1" parent="1">
          <mxGeometry x="10" y="-1350" width="120" height="60" as="geometry" />
        </mxCell>
        <mxCell id="rHNaq6syW2K50itlWnIk-97" value="&lt;span style=&quot;color: rgb(0, 0, 0); font-family: Helvetica; font-style: normal; font-variant-ligatures: normal; font-variant-caps: normal; font-weight: 400; letter-spacing: normal; orphans: 2; text-align: center; text-indent: 0px; text-transform: none; widows: 2; word-spacing: 0px; -webkit-text-stroke-width: 0px; white-space: nowrap; background-color: rgb(251, 251, 251); text-decoration-thickness: initial; text-decoration-style: initial; text-decoration-color: initial; float: none; display: inline !important;&quot;&gt;&lt;font style=&quot;font-size: 25px;&quot;&gt;imm_s&lt;/font&gt;&lt;/span&gt;" style="text;whiteSpace=wrap;html=1;" vertex="1" parent="1">
          <mxGeometry x="10" y="-1310" width="130" height="60" as="geometry" />
        </mxCell>
        <mxCell id="rHNaq6syW2K50itlWnIk-98" value="&lt;span style=&quot;color: rgb(0, 0, 0); font-family: Helvetica; font-style: normal; font-variant-ligatures: normal; font-variant-caps: normal; font-weight: 400; letter-spacing: normal; orphans: 2; text-align: center; text-indent: 0px; text-transform: none; widows: 2; word-spacing: 0px; -webkit-text-stroke-width: 0px; white-space: nowrap; background-color: rgb(251, 251, 251); text-decoration-thickness: initial; text-decoration-style: initial; text-decoration-color: initial; float: none; display: inline !important;&quot;&gt;&lt;font style=&quot;font-size: 25px;&quot;&gt;imm_sb&lt;/font&gt;&lt;/span&gt;" style="text;whiteSpace=wrap;html=1;" vertex="1" parent="1">
          <mxGeometry x="10" y="-1272.87" width="130" height="60" as="geometry" />
        </mxCell>
        <mxCell id="rHNaq6syW2K50itlWnIk-99" value="" style="shape=waypoint;sketch=0;fillStyle=solid;size=6;pointerEvents=1;points=[];fillColor=none;resizable=0;rotatable=0;perimeter=centerPerimeter;snapToPoint=1;" vertex="1" parent="1">
          <mxGeometry x="-200" y="-1565" width="20" height="20" as="geometry" />
        </mxCell>
        <mxCell id="rHNaq6syW2K50itlWnIk-100" value="" style="endArrow=classic;html=1;rounded=0;entryX=0.25;entryY=1;entryDx=0;entryDy=0;" edge="1" parent="1">
          <mxGeometry width="50" height="50" relative="1" as="geometry">
            <mxPoint x="-190" y="-1350" as="sourcePoint" />
            <mxPoint x="809.375" y="-1347.5575" as="targetPoint" />
          </mxGeometry>
        </mxCell>
        <mxCell id="rHNaq6syW2K50itlWnIk-103" value="&lt;font style=&quot;forced-color-adjust: none; color: rgb(0, 0, 0); font-family: Helvetica; font-style: normal; font-variant-ligatures: normal; font-variant-caps: normal; font-weight: 400; letter-spacing: normal; orphans: 2; text-align: center; text-indent: 0px; text-transform: none; widows: 2; word-spacing: 0px; -webkit-text-stroke-width: 0px; white-space: nowrap; text-decoration-thickness: initial; text-decoration-style: initial; text-decoration-color: initial; font-size: 20px;&quot;&gt;rs_1&lt;/font&gt;&lt;br class=&quot;Apple-interchange-newline&quot;&gt;&lt;div&gt;&lt;font style=&quot;forced-color-adjust: none; color: rgb(0, 0, 0); font-family: Helvetica; font-style: normal; font-variant-ligatures: normal; font-variant-caps: normal; font-weight: 400; letter-spacing: normal; orphans: 2; text-align: center; text-indent: 0px; text-transform: none; widows: 2; word-spacing: 0px; -webkit-text-stroke-width: 0px; white-space: nowrap; text-decoration-thickness: initial; text-decoration-style: initial; text-decoration-color: initial; font-size: 20px;&quot;&gt;&lt;br&gt;&lt;/font&gt;&lt;/div&gt;" style="text;whiteSpace=wrap;html=1;" vertex="1" parent="1">
          <mxGeometry x="-110" y="-1560" width="100" height="50" as="geometry" />
        </mxCell>
        <mxCell id="rHNaq6syW2K50itlWnIk-106" style="edgeStyle=orthogonalEdgeStyle;rounded=0;orthogonalLoop=1;jettySize=auto;html=1;exitX=0.25;exitY=0;exitDx=0;exitDy=0;entryX=0.25;entryY=1;entryDx=0;entryDy=0;" edge="1" parent="1" source="rHNaq6syW2K50itlWnIk-104" target="rHNaq6syW2K50itlWnIk-103">
          <mxGeometry relative="1" as="geometry" />
        </mxCell>
        <mxCell id="rHNaq6syW2K50itlWnIk-104" value="&lt;font style=&quot;forced-color-adjust: none; color: rgb(0, 0, 0); font-family: Helvetica; font-style: normal; font-variant-ligatures: normal; font-variant-caps: normal; font-weight: 400; letter-spacing: normal; orphans: 2; text-indent: 0px; text-transform: none; widows: 2; word-spacing: 0px; -webkit-text-stroke-width: 0px; white-space: nowrap; background-color: rgb(251, 251, 251); text-decoration-thickness: initial; text-decoration-style: initial; text-decoration-color: initial; text-align: center; font-size: 20px;&quot;&gt;rs_2&lt;/font&gt;" style="text;whiteSpace=wrap;html=1;" vertex="1" parent="1">
          <mxGeometry x="-105" y="-1495" width="70" height="50" as="geometry" />
        </mxCell>
        <mxCell id="rHNaq6syW2K50itlWnIk-105" value="" style="endArrow=none;html=1;rounded=0;exitX=0.5;exitY=0;exitDx=0;exitDy=0;entryX=0;entryY=0.5;entryDx=0;entryDy=0;" edge="1" parent="1" target="rHNaq6syW2K50itlWnIk-61">
          <mxGeometry width="50" height="50" relative="1" as="geometry">
            <mxPoint x="-197.5" y="-1530" as="sourcePoint" />
            <mxPoint y="-1520" as="targetPoint" />
          </mxGeometry>
        </mxCell>
        <mxCell id="rHNaq6syW2K50itlWnIk-107" value="" style="endArrow=classic;html=1;rounded=0;" edge="1" parent="1">
          <mxGeometry width="50" height="50" relative="1" as="geometry">
            <mxPoint x="275" y="-1565" as="sourcePoint" />
            <mxPoint x="410" y="-1565" as="targetPoint" />
          </mxGeometry>
        </mxCell>
        <mxCell id="rHNaq6syW2K50itlWnIk-109" value="" style="endArrow=classic;html=1;rounded=0;entryX=0.5;entryY=1;entryDx=0;entryDy=0;" edge="1" parent="1" target="rHNaq6syW2K50itlWnIk-67">
          <mxGeometry width="50" height="50" relative="1" as="geometry">
            <mxPoint x="440" y="-1612.8600000000001" as="sourcePoint" />
            <mxPoint x="650" y="-1612.43" as="targetPoint" />
          </mxGeometry>
        </mxCell>
        <mxCell id="rHNaq6syW2K50itlWnIk-111" value="" style="rounded=0;whiteSpace=wrap;html=1;rotation=90;fillColor=#dae8fc;strokeColor=#6c8ebf;" vertex="1" parent="1">
          <mxGeometry x="1115" y="-1709.29" width="140" height="40" as="geometry" />
        </mxCell>
        <mxCell id="rHNaq6syW2K50itlWnIk-112" value="&lt;font style=&quot;font-size: 30px;&quot;&gt;op0_mux_out_X&lt;/font&gt;&lt;div&gt;&lt;font style=&quot;font-size: 30px;&quot;&gt;&lt;br&gt;&lt;/font&gt;&lt;/div&gt;" style="text;whiteSpace=wrap;html=1;" vertex="1" parent="1">
          <mxGeometry x="1105" y="-1610.6999999999998" width="120" height="60" as="geometry" />
        </mxCell>
        <mxCell id="rHNaq6syW2K50itlWnIk-113" value="" style="triangle;whiteSpace=wrap;html=1;rotation=-90;" vertex="1" parent="1">
          <mxGeometry x="1165" y="-1659.29" width="40" height="40" as="geometry" />
        </mxCell>
        <mxCell id="rHNaq6syW2K50itlWnIk-118" value="&lt;font style=&quot;forced-color-adjust: none; color: rgb(0, 0, 0); font-family: Helvetica; font-style: normal; font-variant-ligatures: normal; font-variant-caps: normal; font-weight: 400; letter-spacing: normal; orphans: 2; text-align: left; text-indent: 0px; text-transform: none; widows: 2; word-spacing: 0px; -webkit-text-stroke-width: 0px; white-space: normal; background-color: rgb(251, 251, 251); text-decoration-thickness: initial; text-decoration-style: initial; text-decoration-color: initial; font-size: 30px;&quot;&gt;op1&lt;/font&gt;&lt;span style=&quot;font-size: 30px;&quot;&gt;_mux_out_X&lt;/span&gt;" style="text;whiteSpace=wrap;html=1;" vertex="1" parent="1">
          <mxGeometry x="1070" y="-1300" width="250" height="60" as="geometry" />
        </mxCell>
        <mxCell id="rHNaq6syW2K50itlWnIk-120" value="" style="endArrow=none;dashed=1;html=1;strokeWidth=5;rounded=0;" edge="1" parent="1" target="rHNaq6syW2K50itlWnIk-119">
          <mxGeometry width="50" height="50" relative="1" as="geometry">
            <mxPoint x="1171.75" y="680" as="sourcePoint" />
            <mxPoint x="1188.25" y="-1570" as="targetPoint" />
          </mxGeometry>
        </mxCell>
        <mxCell id="rHNaq6syW2K50itlWnIk-119" value="" style="rounded=0;whiteSpace=wrap;html=1;rotation=90;fillColor=#dae8fc;strokeColor=#6c8ebf;" vertex="1" parent="1">
          <mxGeometry x="1115" y="-1410" width="140" height="40" as="geometry" />
        </mxCell>
        <mxCell id="rHNaq6syW2K50itlWnIk-121" value="" style="endArrow=classic;html=1;rounded=0;entryX=0.5;entryY=1;entryDx=0;entryDy=0;" edge="1" parent="1" target="rHNaq6syW2K50itlWnIk-111">
          <mxGeometry width="50" height="50" relative="1" as="geometry">
            <mxPoint x="740" y="-1659.2900000000002" as="sourcePoint" />
            <mxPoint x="1009" y="-1676.43" as="targetPoint" />
          </mxGeometry>
        </mxCell>
        <mxCell id="rHNaq6syW2K50itlWnIk-122" value="" style="endArrow=classic;html=1;rounded=0;entryX=0.5;entryY=1;entryDx=0;entryDy=0;" edge="1" parent="1" target="rHNaq6syW2K50itlWnIk-119">
          <mxGeometry width="50" height="50" relative="1" as="geometry">
            <mxPoint x="827" y="-1381.43" as="sourcePoint" />
            <mxPoint x="1096" y="-1398.57" as="targetPoint" />
          </mxGeometry>
        </mxCell>
        <mxCell id="rHNaq6syW2K50itlWnIk-123" value="" style="group" vertex="1" connectable="0" parent="1">
          <mxGeometry x="1520" y="-480" width="170" height="400" as="geometry" />
        </mxCell>
        <mxCell id="rHNaq6syW2K50itlWnIk-124" value="&lt;font style=&quot;font-size: 48px;&quot;&gt;alu&lt;/font&gt;" style="text;whiteSpace=wrap;html=1;" vertex="1" parent="rHNaq6syW2K50itlWnIk-123">
          <mxGeometry x="50" y="160" width="120" height="60" as="geometry" />
        </mxCell>
        <mxCell id="rHNaq6syW2K50itlWnIk-125" value="" style="endArrow=none;html=1;rounded=0;" edge="1" parent="rHNaq6syW2K50itlWnIk-123">
          <mxGeometry width="50" height="50" relative="1" as="geometry">
            <mxPoint y="160" as="sourcePoint" />
            <mxPoint as="targetPoint" />
          </mxGeometry>
        </mxCell>
        <mxCell id="rHNaq6syW2K50itlWnIk-126" value="" style="endArrow=none;html=1;rounded=0;" edge="1" parent="rHNaq6syW2K50itlWnIk-123">
          <mxGeometry width="50" height="50" relative="1" as="geometry">
            <mxPoint as="sourcePoint" />
            <mxPoint x="160" y="120" as="targetPoint" />
          </mxGeometry>
        </mxCell>
        <mxCell id="rHNaq6syW2K50itlWnIk-127" value="" style="endArrow=none;html=1;rounded=0;" edge="1" parent="rHNaq6syW2K50itlWnIk-123">
          <mxGeometry width="50" height="50" relative="1" as="geometry">
            <mxPoint x="160" y="280" as="sourcePoint" />
            <mxPoint x="160" y="120" as="targetPoint" />
          </mxGeometry>
        </mxCell>
        <mxCell id="rHNaq6syW2K50itlWnIk-128" value="" style="endArrow=none;html=1;rounded=0;" edge="1" parent="rHNaq6syW2K50itlWnIk-123">
          <mxGeometry width="50" height="50" relative="1" as="geometry">
            <mxPoint y="159" as="sourcePoint" />
            <mxPoint x="40" y="199" as="targetPoint" />
          </mxGeometry>
        </mxCell>
        <mxCell id="rHNaq6syW2K50itlWnIk-129" value="" style="endArrow=none;html=1;rounded=0;" edge="1" parent="rHNaq6syW2K50itlWnIk-123">
          <mxGeometry width="50" height="50" relative="1" as="geometry">
            <mxPoint y="239" as="sourcePoint" />
            <mxPoint x="40" y="199" as="targetPoint" />
          </mxGeometry>
        </mxCell>
        <mxCell id="rHNaq6syW2K50itlWnIk-130" value="" style="endArrow=none;html=1;rounded=0;" edge="1" parent="rHNaq6syW2K50itlWnIk-123">
          <mxGeometry width="50" height="50" relative="1" as="geometry">
            <mxPoint y="400" as="sourcePoint" />
            <mxPoint x="160" y="280" as="targetPoint" />
          </mxGeometry>
        </mxCell>
        <mxCell id="rHNaq6syW2K50itlWnIk-131" value="" style="endArrow=none;html=1;rounded=0;" edge="1" parent="rHNaq6syW2K50itlWnIk-123">
          <mxGeometry width="50" height="50" relative="1" as="geometry">
            <mxPoint x="1" y="399" as="sourcePoint" />
            <mxPoint x="1" y="239" as="targetPoint" />
          </mxGeometry>
        </mxCell>
        <mxCell id="rHNaq6syW2K50itlWnIk-135" value="" style="rounded=0;whiteSpace=wrap;html=1;rotation=90;fillColor=#dae8fc;strokeColor=#6c8ebf;" vertex="1" parent="1">
          <mxGeometry x="1810" y="-1580" width="140" height="40" as="geometry" />
        </mxCell>
        <mxCell id="rHNaq6syW2K50itlWnIk-136" value="&lt;div&gt;&lt;span style=&quot;font-size: 30px;&quot;&gt;aluB_out_X1&lt;/span&gt;&lt;/div&gt;" style="text;whiteSpace=wrap;html=1;" vertex="1" parent="1">
          <mxGeometry x="1820" y="-1480" width="250" height="60" as="geometry" />
        </mxCell>
        <mxCell id="rHNaq6syW2K50itlWnIk-137" value="" style="triangle;whiteSpace=wrap;html=1;rotation=-90;" vertex="1" parent="1">
          <mxGeometry x="1860" y="-1532" width="40" height="40" as="geometry" />
        </mxCell>
        <mxCell id="rHNaq6syW2K50itlWnIk-139" value="" style="endArrow=classic;html=1;rounded=0;" edge="1" parent="1">
          <mxGeometry width="50" height="50" relative="1" as="geometry">
            <mxPoint x="1900" y="-1560.5" as="sourcePoint" />
            <mxPoint x="2880" y="-1560" as="targetPoint" />
          </mxGeometry>
        </mxCell>
        <mxCell id="rHNaq6syW2K50itlWnIk-140" value="" style="endArrow=classic;html=1;rounded=0;" edge="1" parent="1">
          <mxGeometry width="50" height="50" relative="1" as="geometry">
            <mxPoint x="1680" y="-1540.0000000000002" as="sourcePoint" />
            <mxPoint x="1850" y="-1550" as="targetPoint" />
          </mxGeometry>
        </mxCell>
        <mxCell id="rHNaq6syW2K50itlWnIk-171" value="" style="rounded=0;whiteSpace=wrap;html=1;fillColor=#dae8fc;strokeColor=#6c8ebf;" vertex="1" parent="1">
          <mxGeometry x="4330" y="-1572" width="380" height="140" as="geometry" />
        </mxCell>
        <mxCell id="rHNaq6syW2K50itlWnIk-172" value="&lt;span style=&quot;font-size: 30px;&quot;&gt;regfile(write)&lt;/span&gt;&lt;div&gt;&lt;span style=&quot;font-size: 30px;&quot;&gt;&lt;br&gt;&lt;/span&gt;&lt;/div&gt;" style="text;whiteSpace=wrap;html=1;" vertex="1" parent="1">
          <mxGeometry x="4430" y="-1534" width="250" height="60" as="geometry" />
        </mxCell>
        <mxCell id="rHNaq6syW2K50itlWnIk-173" value="" style="endArrow=classic;html=1;rounded=0;" edge="1" parent="1">
          <mxGeometry width="50" height="50" relative="1" as="geometry">
            <mxPoint x="4430" y="-1742" as="sourcePoint" />
            <mxPoint x="4430" y="-1582" as="targetPoint" />
          </mxGeometry>
        </mxCell>
        <mxCell id="rHNaq6syW2K50itlWnIk-174" value="" style="endArrow=classic;html=1;rounded=0;" edge="1" parent="1">
          <mxGeometry width="50" height="50" relative="1" as="geometry">
            <mxPoint x="4610" y="-1742" as="sourcePoint" />
            <mxPoint x="4610" y="-1582" as="targetPoint" />
          </mxGeometry>
        </mxCell>
        <mxCell id="rHNaq6syW2K50itlWnIk-175" value="&lt;div&gt;&lt;span style=&quot;font-size: 30px;&quot;&gt;&lt;font color=&quot;#3333ff&quot;&gt;rfB_waddr_W&lt;/font&gt;&lt;/span&gt;&lt;/div&gt;" style="text;whiteSpace=wrap;html=1;" vertex="1" parent="1">
          <mxGeometry x="4350" y="-1812" width="250" height="60" as="geometry" />
        </mxCell>
        <mxCell id="rHNaq6syW2K50itlWnIk-176" value="&lt;div&gt;&lt;span style=&quot;font-size: 30px;&quot;&gt;&lt;font color=&quot;#3333ff&quot;&gt;rfB_wen_W&lt;/font&gt;&lt;/span&gt;&lt;/div&gt;" style="text;whiteSpace=wrap;html=1;" vertex="1" parent="1">
          <mxGeometry x="4560" y="-1812" width="250" height="60" as="geometry" />
        </mxCell>
        <mxCell id="rHNaq6syW2K50itlWnIk-177" value="&lt;span style=&quot;font-size: 30px;&quot;&gt;result_BW&lt;/span&gt;&lt;div&gt;&lt;span style=&quot;font-size: 30px;&quot;&gt;&lt;br&gt;&lt;/span&gt;&lt;/div&gt;" style="text;whiteSpace=wrap;html=1;" vertex="1" parent="1">
          <mxGeometry x="3980" y="-1495" width="250" height="60" as="geometry" />
        </mxCell>
        <mxCell id="rHNaq6syW2K50itlWnIk-178" value="" style="rounded=0;whiteSpace=wrap;html=1;rotation=90;fillColor=#dae8fc;strokeColor=#6c8ebf;" vertex="1" parent="1">
          <mxGeometry x="3980" y="-1600" width="140" height="40" as="geometry" />
        </mxCell>
        <mxCell id="rHNaq6syW2K50itlWnIk-179" value="" style="triangle;whiteSpace=wrap;html=1;rotation=-90;" vertex="1" parent="1">
          <mxGeometry x="4030" y="-1545" width="40" height="40" as="geometry" />
        </mxCell>
        <mxCell id="rHNaq6syW2K50itlWnIk-167" value="" style="rounded=0;whiteSpace=wrap;html=1;rotation=90;fillColor=#dae8fc;strokeColor=#6c8ebf;" vertex="1" parent="1">
          <mxGeometry x="3392" y="-1590" width="140" height="40" as="geometry" />
        </mxCell>
        <mxCell id="rHNaq6syW2K50itlWnIk-168" value="&lt;span style=&quot;font-size: 30px;&quot;&gt;wbA_mux_out_X3&lt;/span&gt;" style="text;whiteSpace=wrap;html=1;" vertex="1" parent="1">
          <mxGeometry x="3412" y="-1497" width="250" height="60" as="geometry" />
        </mxCell>
        <mxCell id="rHNaq6syW2K50itlWnIk-169" value="" style="triangle;whiteSpace=wrap;html=1;rotation=-90;" vertex="1" parent="1">
          <mxGeometry x="3442" y="-1542" width="40" height="40" as="geometry" />
        </mxCell>
        <mxCell id="rHNaq6syW2K50itlWnIk-170" value="" style="endArrow=classic;html=1;rounded=0;entryX=0.5;entryY=1;entryDx=0;entryDy=0;" edge="1" parent="1" target="rHNaq6syW2K50itlWnIk-178">
          <mxGeometry width="50" height="50" relative="1" as="geometry">
            <mxPoint x="3480" y="-1570.5" as="sourcePoint" />
            <mxPoint x="3608" y="-1570" as="targetPoint" />
          </mxGeometry>
        </mxCell>
        <mxCell id="rHNaq6syW2K50itlWnIk-180" value="" style="endArrow=classic;html=1;rounded=0;" edge="1" parent="1">
          <mxGeometry width="50" height="50" relative="1" as="geometry">
            <mxPoint x="4080" y="-1550" as="sourcePoint" />
            <mxPoint x="4320" y="-1550" as="targetPoint" />
          </mxGeometry>
        </mxCell>
        <mxCell id="rHNaq6syW2K50itlWnIk-151" value="" style="rounded=0;whiteSpace=wrap;html=1;rotation=90;fillColor=#dae8fc;strokeColor=#6c8ebf;" vertex="1" parent="1">
          <mxGeometry x="2826" y="-1590" width="140" height="40" as="geometry" />
        </mxCell>
        <mxCell id="rHNaq6syW2K50itlWnIk-152" value="&lt;span style=&quot;font-size: 30px;&quot;&gt;wbA_mux_out_X2&lt;/span&gt;" style="text;whiteSpace=wrap;html=1;" vertex="1" parent="1">
          <mxGeometry x="2849" y="-1497" width="250" height="60" as="geometry" />
        </mxCell>
        <mxCell id="rHNaq6syW2K50itlWnIk-153" value="" style="triangle;whiteSpace=wrap;html=1;rotation=-90;" vertex="1" parent="1">
          <mxGeometry x="2876" y="-1542" width="40" height="40" as="geometry" />
        </mxCell>
        <mxCell id="rHNaq6syW2K50itlWnIk-154" value="" style="endArrow=classic;html=1;rounded=0;entryX=0.5;entryY=1;entryDx=0;entryDy=0;" edge="1" parent="1" target="rHNaq6syW2K50itlWnIk-167">
          <mxGeometry width="50" height="50" relative="1" as="geometry">
            <mxPoint x="2916" y="-1570.5" as="sourcePoint" />
            <mxPoint x="3044" y="-1570" as="targetPoint" />
          </mxGeometry>
        </mxCell>
        <mxCell id="rHNaq6syW2K50itlWnIk-181" value="" style="endArrow=classic;html=1;rounded=0;entryX=0.25;entryY=1;entryDx=0;entryDy=0;exitX=1;exitY=1;exitDx=0;exitDy=0;" edge="1" parent="1" source="rHNaq6syW2K50itlWnIk-61" target="rHNaq6syW2K50itlWnIk-69">
          <mxGeometry width="50" height="50" relative="1" as="geometry">
            <mxPoint x="305" y="-1513.43" as="sourcePoint" />
            <mxPoint x="440" y="-1513.43" as="targetPoint" />
          </mxGeometry>
        </mxCell>
        <mxCell id="rHNaq6syW2K50itlWnIk-184" value="" style="endArrow=none;html=1;rounded=0;exitX=0.25;exitY=1;exitDx=0;exitDy=0;" edge="1" parent="1" source="rHNaq6syW2K50itlWnIk-68">
          <mxGeometry width="50" height="50" relative="1" as="geometry">
            <mxPoint x="300" y="-1660" as="sourcePoint" />
            <mxPoint x="1750" y="-1545" as="targetPoint" />
            <Array as="points">
              <mxPoint x="310" y="-1640" />
              <mxPoint x="300" y="-1840" />
              <mxPoint x="1760" y="-1870" />
            </Array>
          </mxGeometry>
        </mxCell>
        <mxCell id="rHNaq6syW2K50itlWnIk-185" value="" style="endArrow=none;html=1;rounded=0;" edge="1" parent="1">
          <mxGeometry width="50" height="50" relative="1" as="geometry">
            <mxPoint x="400" y="-1600" as="sourcePoint" />
            <mxPoint x="2375" y="-1565" as="targetPoint" />
            <Array as="points">
              <mxPoint x="320" y="-1610" />
              <mxPoint x="260" y="-1810" />
              <mxPoint x="2385" y="-1890" />
            </Array>
          </mxGeometry>
        </mxCell>
        <mxCell id="rHNaq6syW2K50itlWnIk-186" value="" style="endArrow=none;html=1;rounded=0;" edge="1" parent="1">
          <mxGeometry width="50" height="50" relative="1" as="geometry">
            <mxPoint x="390" y="-1561.79" as="sourcePoint" />
            <mxPoint x="3150" y="-1572" as="targetPoint" />
            <Array as="points">
              <mxPoint x="310" y="-1571.79" />
              <mxPoint x="250" y="-1771.79" />
              <mxPoint x="3160" y="-1840" />
            </Array>
          </mxGeometry>
        </mxCell>
        <mxCell id="rHNaq6syW2K50itlWnIk-187" value="" style="endArrow=none;html=1;rounded=0;" edge="1" parent="1">
          <mxGeometry width="50" height="50" relative="1" as="geometry">
            <mxPoint x="400" y="-1532" as="sourcePoint" />
            <mxPoint x="3780" y="-1580" as="targetPoint" />
            <Array as="points">
              <mxPoint x="320" y="-1542" />
              <mxPoint x="260" y="-1742" />
              <mxPoint x="3820" y="-1820" />
            </Array>
          </mxGeometry>
        </mxCell>
        <mxCell id="rHNaq6syW2K50itlWnIk-188" value="" style="endArrow=none;html=1;rounded=0;" edge="1" parent="1">
          <mxGeometry width="50" height="50" relative="1" as="geometry">
            <mxPoint x="400" y="-1510" as="sourcePoint" />
            <mxPoint x="4160" y="-1570" as="targetPoint" />
            <Array as="points">
              <mxPoint x="320" y="-1520" />
              <mxPoint x="260" y="-1720" />
              <mxPoint x="4180" y="-1790" />
            </Array>
          </mxGeometry>
        </mxCell>
        <mxCell id="rHNaq6syW2K50itlWnIk-190" value="" style="endArrow=classic;html=1;rounded=0;exitX=1;exitY=1;exitDx=0;exitDy=0;curved=0;strokeWidth=13;" edge="1" parent="1">
          <mxGeometry width="50" height="50" relative="1" as="geometry">
            <mxPoint x="620.0000000000009" y="-360.0000000000009" as="sourcePoint" />
            <mxPoint x="590" y="-1470" as="targetPoint" />
            <Array as="points">
              <mxPoint x="480" y="-1430" />
            </Array>
          </mxGeometry>
        </mxCell>
        <mxCell id="rHNaq6syW2K50itlWnIk-191" value="" style="endArrow=classic;html=1;rounded=0;curved=0;strokeWidth=13;" edge="1" parent="1">
          <mxGeometry width="50" height="50" relative="1" as="geometry">
            <mxPoint x="840" y="-1900" as="sourcePoint" />
            <mxPoint x="420" y="-520" as="targetPoint" />
            <Array as="points">
              <mxPoint x="370" y="-530" />
            </Array>
          </mxGeometry>
        </mxCell>
        <mxCell id="rHNaq6syW2K50itlWnIk-207" style="edgeStyle=orthogonalEdgeStyle;rounded=0;orthogonalLoop=1;jettySize=auto;html=1;exitX=0.5;exitY=0;exitDx=0;exitDy=0;entryX=0.5;entryY=1;entryDx=0;entryDy=0;" edge="1" parent="1" source="rHNaq6syW2K50itlWnIk-199" target="rHNaq6syW2K50itlWnIk-63">
          <mxGeometry relative="1" as="geometry">
            <mxPoint x="-380" y="-1560" as="targetPoint" />
            <Array as="points">
              <mxPoint x="-380" y="-612" />
              <mxPoint x="-380" y="-1570" />
            </Array>
          </mxGeometry>
        </mxCell>
        <mxCell id="rHNaq6syW2K50itlWnIk-208" style="edgeStyle=orthogonalEdgeStyle;rounded=0;orthogonalLoop=1;jettySize=auto;html=1;exitX=0.5;exitY=0;exitDx=0;exitDy=0;" edge="1" parent="1" source="rHNaq6syW2K50itlWnIk-199">
          <mxGeometry relative="1" as="geometry">
            <mxPoint x="-330" y="-380" as="targetPoint" />
            <Array as="points">
              <mxPoint x="-370" y="-612" />
              <mxPoint x="-370" y="-390" />
              <mxPoint x="-330" y="-390" />
            </Array>
          </mxGeometry>
        </mxCell>
        <mxCell id="rHNaq6syW2K50itlWnIk-199" value="" style="shape=trapezoid;perimeter=trapezoidPerimeter;whiteSpace=wrap;html=1;fixedSize=1;rotation=90;size=50;fillColor=#dae8fc;strokeColor=#6c8ebf;" vertex="1" parent="1">
          <mxGeometry x="-560" y="-642" width="160" height="60" as="geometry" />
        </mxCell>
        <mxCell id="rHNaq6syW2K50itlWnIk-200" style="edgeStyle=orthogonalEdgeStyle;rounded=0;orthogonalLoop=1;jettySize=auto;html=1;exitX=0.25;exitY=1;exitDx=0;exitDy=0;entryX=0;entryY=1;entryDx=0;entryDy=0;" edge="1" parent="1" source="h3CtUdWNvLVvWNDMPcVa-8" target="h3CtUdWNvLVvWNDMPcVa-8">
          <mxGeometry relative="1" as="geometry" />
        </mxCell>
        <mxCell id="rHNaq6syW2K50itlWnIk-203" style="edgeStyle=orthogonalEdgeStyle;rounded=0;orthogonalLoop=1;jettySize=auto;html=1;" edge="1" parent="1">
          <mxGeometry relative="1" as="geometry">
            <mxPoint x="-1280" y="-1510" as="targetPoint" />
            <mxPoint x="-1280" y="-1040" as="sourcePoint" />
          </mxGeometry>
        </mxCell>
        <mxCell id="rHNaq6syW2K50itlWnIk-204" style="edgeStyle=orthogonalEdgeStyle;rounded=0;orthogonalLoop=1;jettySize=auto;html=1;exitX=1;exitY=0.5;exitDx=0;exitDy=0;entryX=0;entryY=0.5;entryDx=0;entryDy=0;" edge="1" parent="1" source="rHNaq6syW2K50itlWnIk-201" target="rHNaq6syW2K50itlWnIk-49">
          <mxGeometry relative="1" as="geometry" />
        </mxCell>
        <mxCell id="rHNaq6syW2K50itlWnIk-201" value="&lt;font style=&quot;font-size: 26px;&quot;&gt;+4&lt;/font&gt;" style="whiteSpace=wrap;html=1;aspect=fixed;fillColor=#dae8fc;strokeColor=#6c8ebf;" vertex="1" parent="1">
          <mxGeometry x="-1330" y="-1595" width="80" height="80" as="geometry" />
        </mxCell>
        <mxCell id="rHNaq6syW2K50itlWnIk-205" value="&lt;div style=&quot;text-align: center;&quot;&gt;&lt;span style=&quot;background-color: initial; font-size: 30px;&quot;&gt;steer&lt;/span&gt;&lt;/div&gt;" style="text;whiteSpace=wrap;html=1;rotation=0;" vertex="1" parent="1">
          <mxGeometry x="-523" y="-530" width="110" height="60" as="geometry" />
        </mxCell>
      </root>
    </mxGraphModel>
  </diagram>
</mxfile>
